<?xml version="1.0" encoding="UTF-8"?>
<svg id="Layer_1" xmlns="http://www.w3.org/2000/svg" version="1.1" viewBox="0 0 234 339.7">
  <!-- Generator: Adobe Illustrator 29.1.0, SVG Export Plug-In . SVG Version: 2.1.0 Build 142)  -->
  <defs>
    <style>
      .st0 {
        fill: #5b2487;
      }
    </style>
  </defs>
  <path class="st0" d="M4.1,213.6c-2.3-19.2.7-37.8,13.3-49.8l1.1,3s.1.3.1.6,0,.5,0,.6c-2.4,7.8-1.4,18.4-.3,27,2.6,21.5,21.2,40.6,34,47.4,18.3,9.7,32,20.5,35.3,43.6.5,3.7.6,7.3.4,10.8l-3-1.1s-.4-.1-.6-.4c-.2-.2-.3-.3-.4-.6-10-21.1-20.8-23-37.9-32-15-7.2-25.6-15-32.4-23.7-5.5-7-8.2-16.1-9.4-25.6Z"/>
  <path class="st0" d="M131.4,294.9c0,.3-.2.5-.4.7-.4.4-.7.4-.7.4l-2.8,1c-.9-4.3-1.6-8.9-1.2-13.4,1.8-22.6,18-41.9,43.7-55.1,19.5-9.2,44.8-29.6,44.5-59.1-.1-11.6-1.4-23.3-6.8-32.7-.1-.2-.2-.5-.2-.8,0-.4.1-.8.1-.8l1.1-2.9c17.1,11.2,25.1,31.8,22,53.6-3.7,25.9-12,43.2-36,56.1-41.2,22.2-56.2,28.6-63.2,52.9Z"/>
  <path class="st0" d="M44.7,181.3c-13.2-25.9,8.6-63.4,48.7-83.8,25.6-13,52.4-15.9,71.9-9.6.6.2,1.2.4,1.7.7,9.6,3.4,15.9,9.4,14.9,15-1.1,6.2-10.8,9.8-22.6,8.8-.5,0-.9,0-1.4-.1-1-.1-2-.3-3.1-.4h-.8c-16.7-2.3-40.5-.5-56.5,8-23.7,12.6-36.1,34.7-27.7,49.4,8.5,14.6,38.3,15.7,62,3.1,22-11.7,29.6-31.3,24.7-37.5-3.5-4.5-12.6-3.8-22.9,1.1,8.6,6.4,13.8,14.8,10.4,20.6-.3.4-1.8,3.5-5.6,3.3-2.7,0-5-2.6-5.5-4.7-1.3-4.8-3.8-8.7-9.2-13.5-1.3.9-2.6,1.9-3.9,2.9-7.6,6-13.5,12.7-16.8,18.8-.1.2-.2.3-.4.5-.3.2-.6.3-.6.3l-1.6.6c1.2-9.6,6.3-19.9,14.5-29-4-2-8-3.3-11.6-3.7l.8-2.3c4.3-1.5,10.5-1.5,16.7.2l.8-.7c20.6-17.3,45.1-16.2,56.8-2.2,11.8,14,5.6,35.4-14.7,52.9-1.7,1.5-3.8,2.9-6.1,4.3-3.1,2.1-6.6,4.2-10.7,6.2-40.1,20.4-89.3,16.7-102.4-9.1Z"/>
  <path class="st0" d="M130.6,335.5c-17.3-26.5-17.9-74.4,1-122.7.6-1.7-1-3.1-2.3-2.6-12.2,3.4-24.4,5.1-36,5.3-.6,3.7-1,7.4-1.4,11.2-4.3,45.1,6.3,85.8,25.7,108.9h13.1Z"/>
  <path class="st0" d="M118.7,79.3c1.8-25,14.7-45.2,35.8-54-4.4-6.6-14.6-13.7-26.9-16.1-12.2,22.9-19.1,45.4-15.2,70.8,2.2-.4,4.3-.6,6.3-.7Z"/>
  <path class="st0" d="M106.8,81.2c-4.1-18.6-2.6-52.5,10.2-75.3-9.1-3.4-18.9-5.5-30.8-2.4-.2,26,5,55.3,13.5,79.9,2.4-.8,4.8-1.6,7.1-2.2Z"/>
  <path class="st0" d="M94.4,85.5C78.5,41.2,75.1,4.7,75.1,4.7c-12.5-1.8-25.9,3.5-36.3,13,1.2,1.1,29.2,28.3,48.9,71.1,2.1-1.2,4.4-2.3,6.7-3.4Z"/>
  <path class="st0" d="M77.5,96.1c1.7-1.5,3.6-2.9,5.6-4.3-10.7-24.8-32.3-50.5-53.2-66.5-12.5,8.3-17.2,18.6-19.3,30.3,10.7.8,27.5,5.8,44.4,18.5,9.3,7,17.1,14.9,22.5,22.1Z"/>
</svg>