<?xml version="1.0" encoding="utf-8" standalone="no"?>
<!-- Generator: Adobe Illustrator 28.1.0, SVG Export Plug-In . SVG Version: 6.00 Build 0)  --><svg xmlns="http://www.w3.org/2000/svg" xmlns:xlink="http://www.w3.org/1999/xlink" id="Layer_2" style="enable-background:new 0 0 250 250;" version="1.1" viewBox="0 0 250 250" x="0px" xml:space="preserve" y="0px">
<style type="text/css">
	.st0{fill:#AFAFD5;}
	.st1{fill:none;stroke:#5B2487;stroke-width:2;stroke-miterlimit:10;}
	.st2{fill:none;stroke:#5B2487;stroke-width:2;stroke-linecap:round;stroke-linejoin:round;stroke-miterlimit:10;}
	.st3{fill:none;stroke:#5B2487;stroke-width:2;stroke-linecap:round;stroke-miterlimit:10;}
	.st4{fill:#4EE48A;}
	.st5{fill:none;stroke:#D7ECF5;stroke-width:11;stroke-miterlimit:10;}
	.st6{fill:#FFFFFF;}
	.st7{clip-path:url(#SVGID_00000031165101942974998470000018322167127854333574_);fill:#AFAFD5;}
	.st8{clip-path:url(#SVGID_00000119811381379199653700000004274437701439607483_);fill:#AFAFD5;}
	.st9{clip-path:url(#SVGID_00000100376578984988604100000016840750578346435507_);fill:#AFAFD5;}
	.st10{fill-rule:evenodd;clip-rule:evenodd;fill:#AFAFD5;}
	.st11{fill-rule:evenodd;clip-rule:evenodd;fill:none;stroke:#5B2487;stroke-width:2;stroke-linecap:round;stroke-miterlimit:10;}
	.st12{fill:#761C5C;}
	.st13{fill:#6E1B58;}
	.st14{fill:none;stroke:#D6EBF4;stroke-width:2;stroke-linecap:round;stroke-linejoin:round;stroke-miterlimit:10;}
	.st15{fill:#FFFFFF;stroke:#5B2487;stroke-width:2;stroke-linecap:round;stroke-linejoin:round;stroke-miterlimit:10;}
	.st16{fill:#5B2487;}
	.st17{fill:#761B5C;}
	.st18{fill:none;stroke:#5B2487;stroke-linecap:round;stroke-linejoin:round;stroke-miterlimit:10;}
	.st19{fill:none;stroke:#5B2487;stroke-width:0.772;stroke-linecap:round;stroke-linejoin:round;stroke-miterlimit:10;}
	.st20{opacity:0.3;fill:none;stroke:#5B2487;stroke-linecap:round;stroke-linejoin:round;stroke-miterlimit:10;}
	.st21{fill:none;stroke:#5B2487;stroke-width:1.2537;stroke-linecap:round;stroke-linejoin:round;stroke-miterlimit:10;}
	.st22{fill:none;stroke:#5B2487;stroke-width:0.5;stroke-linecap:round;stroke-linejoin:round;stroke-miterlimit:10;}
	.st23{opacity:0.3;fill:none;stroke:#5B2487;stroke-width:2;stroke-linecap:round;stroke-linejoin:round;stroke-miterlimit:10;}
	.st24{opacity:0.3;fill:none;stroke:#5B2487;stroke-width:2.344;stroke-linecap:round;stroke-linejoin:round;stroke-miterlimit:10;}
	.st25{opacity:0.3;fill:none;stroke:#5B2487;stroke-miterlimit:10;}
	.st26{fill:none;stroke:#5B2487;stroke-width:2.0576;stroke-linecap:round;stroke-linejoin:round;stroke-miterlimit:10;}
	.st27{fill:#BC0C73;}
	.st28{fill:none;stroke:#5B2487;stroke-width:0.4618;stroke-linecap:round;stroke-linejoin:round;stroke-miterlimit:9.9996;}
	.st29{fill:none;stroke:#207AB4;stroke-width:0.6927;stroke-linecap:round;stroke-linejoin:round;stroke-miterlimit:10;}
	.st30{fill:#BC0C73;stroke:#5B2487;stroke-width:0.2309;stroke-miterlimit:10;}
	.st31{fill:none;stroke:#BC0C73;stroke-width:0.6927;stroke-linecap:round;stroke-linejoin:round;stroke-miterlimit:10;}
	.st32{fill:none;stroke:#5B2487;stroke-width:1.1545;stroke-linecap:round;stroke-linejoin:round;stroke-miterlimit:10;}
	.st33{opacity:0.45;fill:#5A5A5B;enable-background:new    ;}
	.st34{fill:none;stroke:#207AB4;stroke-width:0.4618;stroke-linecap:round;stroke-linejoin:round;stroke-miterlimit:10.0001;}
	.st35{fill:none;stroke:#5B2487;stroke-width:0.6927;stroke-linecap:round;stroke-linejoin:round;stroke-miterlimit:10;}
	.st36{fill:none;stroke:#AFAFD5;stroke-width:2;stroke-miterlimit:10;}
	.st37{fill:none;stroke:#5B2487;stroke-width:2;stroke-linejoin:round;stroke-miterlimit:10;}
	.st38{fill:#FFFFFF;stroke:#5B2487;stroke-width:2;stroke-miterlimit:10;}
	.st39{fill:none;stroke:#D5EBF4;stroke-width:10.0998;stroke-miterlimit:10;}
	.st40{fill:none;stroke:#FFFFFF;stroke-width:1.1222;stroke-miterlimit:10;}
	.st41{fill:none;stroke:#5B2487;stroke-linecap:round;stroke-miterlimit:10;}
	.st42{fill:none;stroke:#5B2487;stroke-width:1.8782;stroke-miterlimit:10;}
	
		.st43{clip-path:url(#SVGID_00000086691373165695510150000006582921176961687695_);fill:none;stroke:#5B2487;stroke-width:2;stroke-linecap:round;stroke-miterlimit:10;}
	
		.st44{fill-rule:evenodd;clip-rule:evenodd;fill:none;stroke:#5B2487;stroke-width:2;stroke-linecap:round;stroke-miterlimit:10;stroke-dasharray:12;}
	.st45{fill:none;stroke:#5B2487;stroke-width:1.6846;stroke-linecap:round;stroke-miterlimit:10;}
	.st46{fill:none;stroke:#5B2487;stroke-width:1.5468;stroke-linecap:round;stroke-linejoin:round;stroke-miterlimit:10;}
	.st47{fill:none;stroke:#5B2487;stroke-width:1.5148;stroke-miterlimit:10;}
	.st48{fill:none;stroke:#5B2487;stroke-width:1.3122;stroke-linecap:round;stroke-linejoin:round;stroke-miterlimit:10;}
	.st49{fill:#771C5C;}
	.st50{fill:#FFFFFF;stroke:#6E1B58;stroke-width:2;stroke-miterlimit:10;}
	.st51{fill:#FFFFFF;stroke:#6E1B58;stroke-width:0.8136;stroke-miterlimit:10;}
	.st52{fill:none;stroke:#761C5D;stroke-width:2;stroke-miterlimit:10;}
	.st53{fill:#FFFFFF;stroke:#6E1B58;stroke-width:1.9527;stroke-miterlimit:10;}
	.st54{fill:none;stroke:#5B2487;stroke-width:1.3606;stroke-linecap:round;stroke-linejoin:round;stroke-miterlimit:10;}
	.st55{fill:#FFFFFF;stroke:#5B2487;stroke-width:2;stroke-linecap:round;stroke-miterlimit:10;}
	
		.st56{fill-rule:evenodd;clip-rule:evenodd;fill:none;stroke:#5B2487;stroke-width:2;stroke-linecap:round;stroke-linejoin:round;stroke-miterlimit:10;}
	.st57{fill:none;stroke:#5B2487;stroke-width:1.7284;stroke-linecap:round;stroke-linejoin:round;stroke-miterlimit:10;}
	.st58{fill:none;stroke:#5B2487;stroke-miterlimit:10;}
	.st59{fill:none;stroke:#5B2487;stroke-width:1.643;stroke-linecap:round;stroke-miterlimit:10;}
	.st60{fill:#FFBF00;}
	.st61{fill:none;stroke:#5B2487;stroke-width:2.4807;stroke-linecap:round;stroke-linejoin:round;stroke-miterlimit:10;}
	.st62{fill:none;stroke:#5B2487;stroke-width:3.3159;stroke-linecap:round;stroke-linejoin:round;stroke-miterlimit:10;}
	.st63{fill:none;stroke:#5B2487;stroke-width:3.1092;stroke-linecap:round;stroke-linejoin:round;stroke-miterlimit:10;}
	.st64{fill:#D2222D;}
	.st65{fill:#238823;}
	.st66{fill:none;stroke:#5B2487;stroke-width:1.7655;stroke-linecap:round;stroke-linejoin:round;stroke-miterlimit:10;}
	.st67{fill:none;stroke:#5B2487;stroke-width:1.4059;stroke-linecap:round;stroke-linejoin:round;stroke-miterlimit:10;}
	.st68{fill:none;stroke:#5B2487;stroke-width:1.5094;stroke-linecap:round;stroke-miterlimit:10;}
	.st69{fill:none;stroke:#5B2487;stroke-width:1.5094;stroke-linecap:round;stroke-linejoin:round;stroke-miterlimit:10;}
	.st70{fill:#771B5C;}
	.st71{fill:none;}
	.st72{fill:#C4C4C4;}
	.st73{fill:none;stroke:#5B2487;stroke-width:1.708;stroke-linecap:round;stroke-miterlimit:10;}
	.st74{fill:none;stroke:#5B2487;stroke-width:2;stroke-linecap:round;stroke-miterlimit:10;stroke-dasharray:8;}
	.st75{fill:none;stroke:#5B2487;stroke-width:4;stroke-linecap:round;stroke-miterlimit:10;}
	.st76{fill:none;stroke:#39393B;stroke-width:10;stroke-miterlimit:10;}
	.st77{fill:none;stroke:#39393B;stroke-width:8;stroke-miterlimit:10;}
	.st78{fill:none;stroke:#39393B;stroke-width:4;stroke-miterlimit:10;}
	.st79{fill:#39393B;}
	.st80{fill:none;stroke:#39393B;stroke-width:10;stroke-linecap:round;stroke-miterlimit:10;}
</style>
<g id="Calton_Hill-Edinburgh_2_">
	<g>
		<circle class="st0" cx="182.3" cy="41.8" r="6.5"/>
		<rect class="st0" height="3" width="68.2" x="154.5" y="168.1"/>
		<polygon class="st0" points="230.4,220.9 197,220.9 197,174.3 234.2,174.3 234.2,181.7 230.4,182   "/>
		<rect class="st0" height="78.9" width="5.6" x="147.6" y="87.4"/>
		<rect class="st0" height="78.9" width="5.6" x="166.4" y="87.4"/>
		<rect class="st0" height="78.9" width="5.6" x="191.5" y="87.4"/>
		<rect class="st0" height="78.9" width="5.6" x="209.5" y="87.4"/>
		<polygon class="st0" points="222.7,63.2 222.7,76.5 137.1,76.5   "/>
		<g>
			<g>
				<rect class="st18" height="2.2" width="99.2" x="127.8" y="170.1"/>
				<rect class="st18" height="6.7" width="95.9" x="129.1" y="172.3"/>
			</g>
			<g>
				<rect class="st18" height="2.2" width="111.3" x="121.8" y="179"/>
				<rect class="st18" height="6.7" width="107.5" x="123.2" y="181.2"/>
			</g>
			<path class="st18" d="M224,220.9h-93.2c-1.1,0-2-0.9-2-2v-31H226v31C226,220,225.1,220.9,224,220.9z"/>
			<line class="st18" x1="59.5" x2="189" y1="220.9" y2="220.9"/>
			<g>
				<rect class="st18" height="78.9" width="8.6" x="142.5" y="87.4"/>
				<rect class="st18" height="78.9" width="8.6" x="161.4" y="87.4"/>
				<rect class="st18" height="78.9" width="8.6" x="185.7" y="87.4"/>
				<rect class="st18" height="78.9" width="8.6" x="203.8" y="87.4"/>
				<rect class="st18" height="3.7" width="12.5" x="140.6" y="166.3"/>
				<rect class="st18" height="8.4" width="12.5" x="140.6" y="79"/>
				<rect class="st18" height="8.4" width="12.5" x="159.5" y="79"/>
				<rect class="st18" height="8.4" width="12.5" x="183.8" y="79"/>
				<rect class="st18" height="8.4" width="12.5" x="201.8" y="79"/>
				<rect class="st18" height="3.7" width="12.5" x="159.5" y="166.3"/>
				<rect class="st18" height="3.7" width="12.5" x="183.8" y="166.3"/>
				<rect class="st18" height="3.7" width="12.5" x="201.8" y="166.3"/>
				<rect class="st18" height="10.9" width="83.3" x="135.8" y="64.1"/>
				<path class="st18" d="M214.8,79H140c-1,0-1,0-1.7-1.7l-0.7-2.3h79.6l-0.7,2.3C215.7,79,215.7,79,214.8,79z"/>
				<circle class="st18" cx="178" cy="69.8" r="2.7"/>
				<circle class="st18" cx="192.9" cy="69.8" r="2.7"/>
				<circle class="st18" cx="207.8" cy="69.8" r="2.7"/>
				<circle class="st18" cx="148.2" cy="69.8" r="2.7"/>
				<circle class="st18" cx="163.1" cy="69.8" r="2.7"/>
				<g>
					<path class="st18" d="M133.4,61.2l40.8-11.7h5.7L221.4,61c0.4,0.1,0.4,1.1-0.1,1.1L133.5,62C133,62,132.9,61.3,133.4,61.2z"/>
					<g>
						<path class="st18" d="M173.2,43.1h8V44c0,0.9-0.6,1.6-1.5,1.7v3.8h-5.1v-3.8c-0.8-0.1-1.4-0.9-1.4-1.7V43.1z"/>
						<path class="st18" d="M181.2,37.7L181.2,37.7l0,1.9h-8v-1.9h0c0-2.2-1.8-4-4-4c0-2.2,1.8-4,4-4c2.2,0,4,1.8,4,4        c0-2.2,1.8-4,4-4c2.2,0,4,1.8,4,4C182.9,33.7,181.2,35.5,181.2,37.7z"/>
						<rect class="st18" height="3.4" width="10.3" x="172" y="39.6"/>
					</g>
					<rect class="st18" height="2.1" width="88.6" x="133.1" y="62"/>
				</g>
				<line class="st18" x1="144.7" x2="144.7" y1="87.7" y2="120.6"/>
				<line class="st18" x1="146.9" x2="146.9" y1="87.7" y2="129.8"/>
				<line class="st18" x1="148.7" x2="148.7" y1="87.7" y2="149.8"/>
				<line class="st18" x1="163.7" x2="163.7" y1="87.7" y2="120.6"/>
				<line class="st18" x1="165.9" x2="165.9" y1="87.7" y2="129.8"/>
				<line class="st18" x1="167.7" x2="167.7" y1="87.7" y2="149.8"/>
				<line class="st18" x1="188" x2="188" y1="87.7" y2="120.6"/>
				<line class="st18" x1="190.2" x2="190.2" y1="87.7" y2="129.8"/>
				<line class="st18" x1="192" x2="192" y1="87.7" y2="149.8"/>
				<line class="st18" x1="206" x2="206" y1="87.7" y2="120.6"/>
				<line class="st18" x1="208.2" x2="208.2" y1="87.7" y2="129.8"/>
				<line class="st18" x1="210.1" x2="210.1" y1="87.7" y2="149.8"/>
				<line class="st18" x1="148.7" x2="148.7" y1="152.9" y2="155.9"/>
				<line class="st18" x1="163.7" x2="163.7" y1="122.7" y2="126"/>
				<line class="st18" x1="188" x2="188" y1="152.9" y2="166"/>
				<line class="st18" x1="208.2" x2="208.2" y1="131.9" y2="134.9"/>
			</g>
			<line class="st20" x1="135.8" x2="17.4" y1="146.3" y2="146.3"/>
			<path class="st20" d="M89.9,165.8c0-6.8,5.5-12.2,12.2-12.2s12.2,5.5,12.2,12.2"/>
			<path class="st20" d="M47.2,165.8c0-6.8,5.5-12.2,12.2-12.2s12.2,5.5,12.2,12.2"/>
			<polyline class="st20" points="29.3,106.3 43.9,106.3 53.1,115.5 61.8,106.9 71.7,106.9 71.7,102 78.7,102 78.7,108.4 86,108.4      92.4,114.7 92.4,134.9 99.1,134.9 99.1,81.7 107.3,72.1 126.1,72.1 134.3,80.3 134.3,107.8 139.3,107.8    "/>
			<line class="st20" x1="153.1" x2="159.5" y1="107.8" y2="107.8"/>
			<line class="st20" x1="24.6" x2="17.4" y1="106.3" y2="106.3"/>
		</g>
	</g>
</g>
</svg>
