<?xml version="1.0" encoding="utf-8" standalone="no"?>
<!-- Generator: Adobe Illustrator 28.1.0, SVG Export Plug-In . SVG Version: 6.00 Build 0)  --><svg xmlns="http://www.w3.org/2000/svg" xmlns:xlink="http://www.w3.org/1999/xlink" id="Layer_2" style="enable-background:new 0 0 250 250;" version="1.1" viewBox="0 0 250 250" x="0px" xml:space="preserve" y="0px">
<style type="text/css">
	.st0{fill:#AFAFD5;}
	.st1{fill:none;stroke:#5B2487;stroke-width:2;stroke-miterlimit:10;}
	.st2{fill:none;stroke:#5B2487;stroke-width:2;stroke-linecap:round;stroke-linejoin:round;stroke-miterlimit:10;}
	.st3{fill:none;stroke:#5B2487;stroke-width:2;stroke-linecap:round;stroke-miterlimit:10;}
	.st4{fill:#4EE48A;}
	.st5{fill:none;stroke:#D7ECF5;stroke-width:11;stroke-miterlimit:10;}
	.st6{fill:#FFFFFF;}
	.st7{clip-path:url(#SVGID_00000000210838234114164450000011056290225626192036_);fill:#AFAFD5;}
	.st8{clip-path:url(#SVGID_00000143601273548684317820000008867462638450780815_);fill:#AFAFD5;}
	.st9{clip-path:url(#SVGID_00000093855934791507571360000009432428714031543994_);fill:#AFAFD5;}
	.st10{fill-rule:evenodd;clip-rule:evenodd;fill:#AFAFD5;}
	.st11{fill-rule:evenodd;clip-rule:evenodd;fill:none;stroke:#5B2487;stroke-width:2;stroke-linecap:round;stroke-miterlimit:10;}
	.st12{fill:#761C5C;}
	.st13{fill:#6E1B58;}
	.st14{fill:none;stroke:#D6EBF4;stroke-width:2;stroke-linecap:round;stroke-linejoin:round;stroke-miterlimit:10;}
	.st15{fill:#FFFFFF;stroke:#5B2487;stroke-width:2;stroke-linecap:round;stroke-linejoin:round;stroke-miterlimit:10;}
	.st16{fill:#5B2487;}
	.st17{fill:#761B5C;}
	.st18{fill:none;stroke:#5B2487;stroke-linecap:round;stroke-linejoin:round;stroke-miterlimit:10;}
	.st19{fill:none;stroke:#5B2487;stroke-width:0.772;stroke-linecap:round;stroke-linejoin:round;stroke-miterlimit:10;}
	.st20{opacity:0.3;fill:none;stroke:#5B2487;stroke-linecap:round;stroke-linejoin:round;stroke-miterlimit:10;}
	.st21{fill:none;stroke:#5B2487;stroke-width:1.2537;stroke-linecap:round;stroke-linejoin:round;stroke-miterlimit:10;}
	.st22{fill:none;stroke:#5B2487;stroke-width:0.5;stroke-linecap:round;stroke-linejoin:round;stroke-miterlimit:10;}
	.st23{opacity:0.3;fill:none;stroke:#5B2487;stroke-width:2;stroke-linecap:round;stroke-linejoin:round;stroke-miterlimit:10;}
	.st24{opacity:0.3;fill:none;stroke:#5B2487;stroke-width:2.344;stroke-linecap:round;stroke-linejoin:round;stroke-miterlimit:10;}
	.st25{opacity:0.3;fill:none;stroke:#5B2487;stroke-miterlimit:10;}
	.st26{fill:none;stroke:#5B2487;stroke-width:2.0576;stroke-linecap:round;stroke-linejoin:round;stroke-miterlimit:10;}
	.st27{fill:#BC0C73;}
	.st28{fill:none;stroke:#5B2487;stroke-width:0.4618;stroke-linecap:round;stroke-linejoin:round;stroke-miterlimit:9.9996;}
	.st29{fill:none;stroke:#207AB4;stroke-width:0.6927;stroke-linecap:round;stroke-linejoin:round;stroke-miterlimit:10;}
	.st30{fill:#BC0C73;stroke:#5B2487;stroke-width:0.2309;stroke-miterlimit:10;}
	.st31{fill:none;stroke:#BC0C73;stroke-width:0.6927;stroke-linecap:round;stroke-linejoin:round;stroke-miterlimit:10;}
	.st32{fill:none;stroke:#5B2487;stroke-width:1.1545;stroke-linecap:round;stroke-linejoin:round;stroke-miterlimit:10;}
	.st33{opacity:0.45;fill:#5A5A5B;enable-background:new    ;}
	.st34{fill:none;stroke:#207AB4;stroke-width:0.4618;stroke-linecap:round;stroke-linejoin:round;stroke-miterlimit:10.0001;}
	.st35{fill:none;stroke:#5B2487;stroke-width:0.6927;stroke-linecap:round;stroke-linejoin:round;stroke-miterlimit:10;}
	.st36{fill:none;stroke:#AFAFD5;stroke-width:2;stroke-miterlimit:10;}
	.st37{fill:none;stroke:#5B2487;stroke-width:2;stroke-linejoin:round;stroke-miterlimit:10;}
	.st38{fill:#FFFFFF;stroke:#5B2487;stroke-width:2;stroke-miterlimit:10;}
	.st39{fill:none;stroke:#D5EBF4;stroke-width:10.0998;stroke-miterlimit:10;}
	.st40{fill:none;stroke:#FFFFFF;stroke-width:1.1222;stroke-miterlimit:10;}
	.st41{fill:none;stroke:#5B2487;stroke-linecap:round;stroke-miterlimit:10;}
	.st42{fill:none;stroke:#5B2487;stroke-width:1.8782;stroke-miterlimit:10;}
	
		.st43{clip-path:url(#SVGID_00000047047555642390012880000012277560500118075832_);fill:none;stroke:#5B2487;stroke-width:2;stroke-linecap:round;stroke-miterlimit:10;}
	
		.st44{fill-rule:evenodd;clip-rule:evenodd;fill:none;stroke:#5B2487;stroke-width:2;stroke-linecap:round;stroke-miterlimit:10;stroke-dasharray:12;}
	.st45{fill:none;stroke:#5B2487;stroke-width:1.6846;stroke-linecap:round;stroke-miterlimit:10;}
	.st46{fill:none;stroke:#5B2487;stroke-width:1.5468;stroke-linecap:round;stroke-linejoin:round;stroke-miterlimit:10;}
	.st47{fill:none;stroke:#5B2487;stroke-width:1.5148;stroke-miterlimit:10;}
	.st48{fill:none;stroke:#5B2487;stroke-width:1.3122;stroke-linecap:round;stroke-linejoin:round;stroke-miterlimit:10;}
	.st49{fill:#771C5C;}
	.st50{fill:#FFFFFF;stroke:#6E1B58;stroke-width:2;stroke-miterlimit:10;}
	.st51{fill:#FFFFFF;stroke:#6E1B58;stroke-width:0.8136;stroke-miterlimit:10;}
	.st52{fill:none;stroke:#761C5D;stroke-width:2;stroke-miterlimit:10;}
	.st53{fill:#FFFFFF;stroke:#6E1B58;stroke-width:1.9527;stroke-miterlimit:10;}
	.st54{fill:none;stroke:#5B2487;stroke-width:1.3606;stroke-linecap:round;stroke-linejoin:round;stroke-miterlimit:10;}
	.st55{fill:#FFFFFF;stroke:#5B2487;stroke-width:2;stroke-linecap:round;stroke-miterlimit:10;}
	
		.st56{fill-rule:evenodd;clip-rule:evenodd;fill:none;stroke:#5B2487;stroke-width:2;stroke-linecap:round;stroke-linejoin:round;stroke-miterlimit:10;}
	.st57{fill:none;stroke:#5B2487;stroke-width:1.7284;stroke-linecap:round;stroke-linejoin:round;stroke-miterlimit:10;}
	.st58{fill:none;stroke:#5B2487;stroke-miterlimit:10;}
	.st59{fill:none;stroke:#5B2487;stroke-width:1.643;stroke-linecap:round;stroke-miterlimit:10;}
	.st60{fill:#FFBF00;}
	.st61{fill:none;stroke:#5B2487;stroke-width:2.4807;stroke-linecap:round;stroke-linejoin:round;stroke-miterlimit:10;}
	.st62{fill:none;stroke:#5B2487;stroke-width:3.3159;stroke-linecap:round;stroke-linejoin:round;stroke-miterlimit:10;}
	.st63{fill:none;stroke:#5B2487;stroke-width:3.1092;stroke-linecap:round;stroke-linejoin:round;stroke-miterlimit:10;}
	.st64{fill:#D2222D;}
	.st65{fill:#238823;}
	.st66{fill:none;stroke:#5B2487;stroke-width:1.7655;stroke-linecap:round;stroke-linejoin:round;stroke-miterlimit:10;}
	.st67{fill:none;stroke:#5B2487;stroke-width:1.4059;stroke-linecap:round;stroke-linejoin:round;stroke-miterlimit:10;}
	.st68{fill:none;stroke:#5B2487;stroke-width:1.5094;stroke-linecap:round;stroke-miterlimit:10;}
	.st69{fill:none;stroke:#5B2487;stroke-width:1.5094;stroke-linecap:round;stroke-linejoin:round;stroke-miterlimit:10;}
	.st70{fill:#771B5C;}
	.st71{fill:none;}
	.st72{fill:#C4C4C4;}
	.st73{fill:none;stroke:#5B2487;stroke-width:1.708;stroke-linecap:round;stroke-miterlimit:10;}
	.st74{fill:none;stroke:#5B2487;stroke-width:2;stroke-linecap:round;stroke-miterlimit:10;stroke-dasharray:8;}
	.st75{fill:none;stroke:#5B2487;stroke-width:4;stroke-linecap:round;stroke-miterlimit:10;}
	.st76{fill:none;stroke:#39393B;stroke-width:10;stroke-miterlimit:10;}
	.st77{fill:none;stroke:#39393B;stroke-width:8;stroke-miterlimit:10;}
	.st78{fill:none;stroke:#39393B;stroke-width:4;stroke-miterlimit:10;}
	.st79{fill:#39393B;}
	.st80{fill:none;stroke:#39393B;stroke-width:10;stroke-linecap:round;stroke-miterlimit:10;}
</style>
<g id="Investment_2_">
	<g>
		<path class="st0" d="M52.2,181c-2.9,0-0.8-28.7-0.8-28.7c0-2.9-1.7-39.4,1.3-39.4c0,0,18.4,36.5,18.4,39.4L70.6,181L52.2,181z"/>
		<path class="st0" d="M70.4,162.6l58.3-0.4c4.2,0,8.3-1.3,11.6-3.7l47-35.2c3.4-2.5,8.3-1.9,10.8,1.4l2,2.5    c2.4,3.1,1.8,7.5-1.5,9.9l-56.1,41.3c-3.7,2.8-8.3,2.3-13.1,2.3L70.2,181c-5.1-0.1-9.3-4-9.2-8.9l0-2.7    C61.1,164.6,65.2,162.6,70.4,162.6z"/>
		<path class="st3" d="M68.3,178.1h-14c-1.6,0-2.8-1.3-2.8-2.8v-61.5c0-1.6,1.3-2.8,2.8-2.8h14c1.6,0,2.8,1.3,2.8,2.8v61.5    C71.1,176.8,69.8,178.1,68.3,178.1z"/>
		<path class="st3" d="M76.9,126.9h49.8c1.8,0,3,1.8,2.4,3.5c-3.2,8-12.6,19.5-29,20.3c-17.3,0.8,21.3-0.3,34.2-0.5    c2.7,0,29.9-18.4,36.5-24.5c11.2-10.3,15.2-8.2,18.4-5l2.4,2.4c3.6,3.6,3.2,9.6-0.9,12.7l-46,34.3c-2,1.5-4.3,2.3-6.8,2.3    l-66.8,0.3"/>
		<path class="st3" d="M99.6,111c-6.2-8-9.9-18-9.9-28.9c0-26,21.1-47.2,47.2-47.2S184,56,184,82c0,9-2.5,17.4-6.9,24.6"/>
		<g>
			<path class="st16" d="M147.6,96.1v2c0,1.1-0.9,2-2,2h-22.2c-1.1,0-2-0.9-2-2v-1.2c0-0.7,0.4-1.4,1-1.7c3.4-2.1,5.6-5.6,5.6-9.7     c0-0.7-0.1-1.4-0.2-2.1c0-0.2-0.2-0.4-0.5-0.4h-3.6c-1.2,0-2.2-1-2.2-2.2l0,0c0-1.2,0.9-2.1,2-2.2l2.1-0.2c0,0,0,0,0,0h0.7     c-0.7-2.2-1.3-4.3-1.3-6.3c0-7.4,5.1-12,12.3-12c3.5,0,6.1,1.1,8.3,2.9c1.1,0.9,1.1,2.6,0.1,3.6l-0.5,0.5     c-0.9,0.9-2.3,0.9-3.3,0.2c-1.1-0.9-2.4-1.4-4-1.4c-3.8,0-6.1,2.4-6.1,6.5c0,1.9,0.4,3.7,1,5.6c0.1,0.2,0.2,0.3,0.4,0.3l6.9,0     c1.2,0,2.2,1,2.2,2.2v0.1c0,1.2-1,2.2-2.2,2.2h-5.7c-0.3,0-0.5,0.2-0.5,0.5c0.1,0.7,0.1,1.3,0.1,2.1c0,3.6-1,5.9-3.3,8.3v0.2     h14.6C146.7,94.1,147.6,95,147.6,96.1z"/>
		</g>
	</g>
</g>
</svg>
