<?xml version="1.0" encoding="utf-8" standalone="no"?>
<!-- Generator: Adobe Illustrator 28.1.0, SVG Export Plug-In . SVG Version: 6.00 Build 0)  --><svg xmlns="http://www.w3.org/2000/svg" xmlns:xlink="http://www.w3.org/1999/xlink" id="Layer_2" style="enable-background:new 0 0 250 250;" version="1.1" viewBox="0 0 250 250" x="0px" xml:space="preserve" y="0px">
<style type="text/css">
	.st0{fill:#AFAFD5;}
	.st1{fill:none;stroke:#5B2487;stroke-width:2;stroke-miterlimit:10;}
	.st2{fill:none;stroke:#5B2487;stroke-width:2;stroke-linecap:round;stroke-linejoin:round;stroke-miterlimit:10;}
	.st3{fill:none;stroke:#5B2487;stroke-width:2;stroke-linecap:round;stroke-miterlimit:10;}
	.st4{fill:#4EE48A;}
	.st5{fill:none;stroke:#D7ECF5;stroke-width:11;stroke-miterlimit:10;}
	.st6{fill:#FFFFFF;}
	.st7{clip-path:url(#SVGID_00000164478267085634480850000007407611203805648811_);fill:#AFAFD5;}
	.st8{clip-path:url(#SVGID_00000129888419455137035030000004132779370395577259_);fill:#AFAFD5;}
	.st9{clip-path:url(#SVGID_00000183207814435808055900000000157631163164581770_);fill:#AFAFD5;}
	.st10{fill-rule:evenodd;clip-rule:evenodd;fill:#AFAFD5;}
	.st11{fill-rule:evenodd;clip-rule:evenodd;fill:none;stroke:#5B2487;stroke-width:2;stroke-linecap:round;stroke-miterlimit:10;}
	.st12{fill:#761C5C;}
	.st13{fill:#6E1B58;}
	.st14{fill:none;stroke:#D6EBF4;stroke-width:2;stroke-linecap:round;stroke-linejoin:round;stroke-miterlimit:10;}
	.st15{fill:#FFFFFF;stroke:#5B2487;stroke-width:2;stroke-linecap:round;stroke-linejoin:round;stroke-miterlimit:10;}
	.st16{fill:#5B2487;}
	.st17{fill:#761B5C;}
	.st18{fill:none;stroke:#5B2487;stroke-linecap:round;stroke-linejoin:round;stroke-miterlimit:10;}
	.st19{fill:none;stroke:#5B2487;stroke-width:0.772;stroke-linecap:round;stroke-linejoin:round;stroke-miterlimit:10;}
	.st20{opacity:0.3;fill:none;stroke:#5B2487;stroke-linecap:round;stroke-linejoin:round;stroke-miterlimit:10;}
	.st21{fill:none;stroke:#5B2487;stroke-width:1.2537;stroke-linecap:round;stroke-linejoin:round;stroke-miterlimit:10;}
	.st22{fill:none;stroke:#5B2487;stroke-width:0.5;stroke-linecap:round;stroke-linejoin:round;stroke-miterlimit:10;}
	.st23{opacity:0.3;fill:none;stroke:#5B2487;stroke-width:2;stroke-linecap:round;stroke-linejoin:round;stroke-miterlimit:10;}
	.st24{opacity:0.3;fill:none;stroke:#5B2487;stroke-width:2.344;stroke-linecap:round;stroke-linejoin:round;stroke-miterlimit:10;}
	.st25{opacity:0.3;fill:none;stroke:#5B2487;stroke-miterlimit:10;}
	.st26{fill:none;stroke:#5B2487;stroke-width:2.0576;stroke-linecap:round;stroke-linejoin:round;stroke-miterlimit:10;}
	.st27{fill:#BC0C73;}
	.st28{fill:none;stroke:#5B2487;stroke-width:0.4618;stroke-linecap:round;stroke-linejoin:round;stroke-miterlimit:9.9996;}
	.st29{fill:none;stroke:#207AB4;stroke-width:0.6927;stroke-linecap:round;stroke-linejoin:round;stroke-miterlimit:10;}
	.st30{fill:#BC0C73;stroke:#5B2487;stroke-width:0.2309;stroke-miterlimit:10;}
	.st31{fill:none;stroke:#BC0C73;stroke-width:0.6927;stroke-linecap:round;stroke-linejoin:round;stroke-miterlimit:10;}
	.st32{fill:none;stroke:#5B2487;stroke-width:1.1545;stroke-linecap:round;stroke-linejoin:round;stroke-miterlimit:10;}
	.st33{opacity:0.45;fill:#5A5A5B;enable-background:new    ;}
	.st34{fill:none;stroke:#207AB4;stroke-width:0.4618;stroke-linecap:round;stroke-linejoin:round;stroke-miterlimit:10.0001;}
	.st35{fill:none;stroke:#5B2487;stroke-width:0.6927;stroke-linecap:round;stroke-linejoin:round;stroke-miterlimit:10;}
	.st36{fill:none;stroke:#AFAFD5;stroke-width:2;stroke-miterlimit:10;}
	.st37{fill:none;stroke:#5B2487;stroke-width:2;stroke-linejoin:round;stroke-miterlimit:10;}
	.st38{fill:#FFFFFF;stroke:#5B2487;stroke-width:2;stroke-miterlimit:10;}
	.st39{fill:none;stroke:#D5EBF4;stroke-width:10.0998;stroke-miterlimit:10;}
	.st40{fill:none;stroke:#FFFFFF;stroke-width:1.1222;stroke-miterlimit:10;}
	.st41{fill:none;stroke:#5B2487;stroke-linecap:round;stroke-miterlimit:10;}
	.st42{fill:none;stroke:#5B2487;stroke-width:1.8782;stroke-miterlimit:10;}
	
		.st43{clip-path:url(#SVGID_00000086653292653982827890000015054876831422078874_);fill:none;stroke:#5B2487;stroke-width:2;stroke-linecap:round;stroke-miterlimit:10;}
	
		.st44{fill-rule:evenodd;clip-rule:evenodd;fill:none;stroke:#5B2487;stroke-width:2;stroke-linecap:round;stroke-miterlimit:10;stroke-dasharray:12;}
	.st45{fill:none;stroke:#5B2487;stroke-width:1.6846;stroke-linecap:round;stroke-miterlimit:10;}
	.st46{fill:none;stroke:#5B2487;stroke-width:1.5468;stroke-linecap:round;stroke-linejoin:round;stroke-miterlimit:10;}
	.st47{fill:none;stroke:#5B2487;stroke-width:1.5148;stroke-miterlimit:10;}
	.st48{fill:none;stroke:#5B2487;stroke-width:1.3122;stroke-linecap:round;stroke-linejoin:round;stroke-miterlimit:10;}
	.st49{fill:#771C5C;}
	.st50{fill:#FFFFFF;stroke:#6E1B58;stroke-width:2;stroke-miterlimit:10;}
	.st51{fill:#FFFFFF;stroke:#6E1B58;stroke-width:0.8136;stroke-miterlimit:10;}
	.st52{fill:none;stroke:#761C5D;stroke-width:2;stroke-miterlimit:10;}
	.st53{fill:#FFFFFF;stroke:#6E1B58;stroke-width:1.9527;stroke-miterlimit:10;}
	.st54{fill:none;stroke:#5B2487;stroke-width:1.3606;stroke-linecap:round;stroke-linejoin:round;stroke-miterlimit:10;}
	.st55{fill:#FFFFFF;stroke:#5B2487;stroke-width:2;stroke-linecap:round;stroke-miterlimit:10;}
	
		.st56{fill-rule:evenodd;clip-rule:evenodd;fill:none;stroke:#5B2487;stroke-width:2;stroke-linecap:round;stroke-linejoin:round;stroke-miterlimit:10;}
	.st57{fill:none;stroke:#5B2487;stroke-width:1.7284;stroke-linecap:round;stroke-linejoin:round;stroke-miterlimit:10;}
	.st58{fill:none;stroke:#5B2487;stroke-miterlimit:10;}
	.st59{fill:none;stroke:#5B2487;stroke-width:1.643;stroke-linecap:round;stroke-miterlimit:10;}
	.st60{fill:#FFBF00;}
	.st61{fill:none;stroke:#5B2487;stroke-width:2.4807;stroke-linecap:round;stroke-linejoin:round;stroke-miterlimit:10;}
	.st62{fill:none;stroke:#5B2487;stroke-width:3.3159;stroke-linecap:round;stroke-linejoin:round;stroke-miterlimit:10;}
	.st63{fill:none;stroke:#5B2487;stroke-width:3.1092;stroke-linecap:round;stroke-linejoin:round;stroke-miterlimit:10;}
	.st64{fill:#D2222D;}
	.st65{fill:#238823;}
	.st66{fill:none;stroke:#5B2487;stroke-width:1.7655;stroke-linecap:round;stroke-linejoin:round;stroke-miterlimit:10;}
	.st67{fill:none;stroke:#5B2487;stroke-width:1.4059;stroke-linecap:round;stroke-linejoin:round;stroke-miterlimit:10;}
	.st68{fill:none;stroke:#5B2487;stroke-width:1.5094;stroke-linecap:round;stroke-miterlimit:10;}
	.st69{fill:none;stroke:#5B2487;stroke-width:1.5094;stroke-linecap:round;stroke-linejoin:round;stroke-miterlimit:10;}
	.st70{fill:#771B5C;}
	.st71{fill:none;}
	.st72{fill:#C4C4C4;}
	.st73{fill:none;stroke:#5B2487;stroke-width:1.708;stroke-linecap:round;stroke-miterlimit:10;}
	.st74{fill:none;stroke:#5B2487;stroke-width:2;stroke-linecap:round;stroke-miterlimit:10;stroke-dasharray:8;}
	.st75{fill:none;stroke:#5B2487;stroke-width:4;stroke-linecap:round;stroke-miterlimit:10;}
	.st76{fill:none;stroke:#39393B;stroke-width:10;stroke-miterlimit:10;}
	.st77{fill:none;stroke:#39393B;stroke-width:8;stroke-miterlimit:10;}
	.st78{fill:none;stroke:#39393B;stroke-width:4;stroke-miterlimit:10;}
	.st79{fill:#39393B;}
	.st80{fill:none;stroke:#39393B;stroke-width:10;stroke-linecap:round;stroke-miterlimit:10;}
</style>
<path class="st0" d="M216.8,87.5c2.7,0,5.2,0.5,7.6,1.4c-0.6-5.5-4.3-10.1-10.4-10.1c-6.3,0-9.2,5.3-9.2,5.3s-2.9-5.3-9.2-5.3  c-10-0.1-13.6,12.5-7.5,20.8c2.2,2.9,4.5,5.1,7.3,7.2C196.6,96,205.7,87.5,216.8,87.5z"/>
<path class="st0" d="M211.3,136.6H138c32.2,11.7,55,39.7,55.7,72.6h17.6c10.3,0,18.7-8.4,18.7-18.7v-35.3  C229.9,145,221.6,136.6,211.3,136.6z"/>
<path class="st3" d="M135.6,202.7H90c-10.3,0-18.7-8.4-18.7-18.7v-35.3c0-10.3,8.4-18.7,18.7-18.7h28.3 M147,202.7h12.3l28.8,25.3  l-3.6-25.3h20.2c10.3,0,18.7-8.4,18.7-18.7v-35.3c0-10.3-8.4-18.7-18.7-18.7h-72.6"/>
<line class="st3" x1="172.5" x2="183.4" y1="160.2" y2="160.2"/>
<line class="st3" x1="152.8" x2="164.9" y1="160.2" y2="160.2"/>
<line class="st3" x1="109.5" x2="145.2" y1="160.2" y2="160.2"/>
<line class="st3" x1="163.7" x2="183.4" y1="172.1" y2="172.1"/>
<line class="st3" x1="143.5" x2="156" y1="172.1" y2="172.1"/>
<line class="st3" x1="109.5" x2="135.8" y1="172.1" y2="172.1"/>
<path class="st0" d="M34.6,60.9h57.1c-25.1,9.1-42.9,31-43.4,56.6H34.6c-8,0-14.6-6.5-14.6-14.6V75.4C20.1,67.4,26.6,60.9,34.6,60.9  z"/>
<path class="st3" d="M107.3,55.6h22.1c8,0,14.6,6.5,14.6,14.6v27.5c0,8-6.5,14.6-14.6,14.6H93.9 M96.6,55.6H39.9  c-8,0-14.6,6.5-14.6,14.6v27.5c0,8,6.5,14.6,14.6,14.6h15.8l-2.8,19.7l22.5-19.7h9.6"/>
<line class="st3" x1="65.1" x2="56.6" y1="79" y2="79"/>
<line class="st3" x1="80.4" x2="71" y1="79" y2="79"/>
<line class="st3" x1="114.2" x2="86.4" y1="79" y2="79"/>
<line class="st3" x1="72" x2="56.6" y1="88.3" y2="88.3"/>
<line class="st3" x1="87.7" x2="77.9" y1="88.3" y2="88.3"/>
<line class="st3" x1="114.2" x2="93.7" y1="88.3" y2="88.3"/>
<g>
	<path class="st2" d="M214,78.9c-6.3,0-9.2,5.3-9.2,5.3s-2.9-5.3-9.2-5.3c-10-0.1-13.6,12.5-7.5,20.8c4.3,5.8,9.3,8.6,16.7,13.4   c7.4-4.8,12.4-7.6,16.7-13.4C227.6,91.3,223.9,78.8,214,78.9z"/>
</g>
<path class="st0" d="M185.7,53.1c1.8,0,3.5,0.3,5.1,1c-0.4-3.7-2.9-6.8-7-6.8c-4.2,0-6.2,3.6-6.2,3.6s-2-3.6-6.2-3.6  c-6.7,0-9.2,8.4-5.1,14.1c1.5,2,3.1,3.5,4.9,4.9C171.9,58.8,178.1,53.1,185.7,53.1z"/>
<g>
	<path class="st2" d="M183.7,47.2c-4.2,0-6.2,3.6-6.2,3.6s-2-3.6-6.2-3.6c-6.7,0-9.2,8.4-5.1,14.1c2.9,3.9,6.3,5.8,11.3,9.1   c5-3.3,8.4-5.2,11.3-9.1C192.9,55.7,190.5,47.2,183.7,47.2z"/>
</g>
<path class="st0" d="M214.6,38.8c1.1,0,2.2,0.2,3.3,0.6c-0.3-2.4-1.9-4.3-4.5-4.3c-2.7,0-3.9,2.3-3.9,2.3s-1.2-2.3-3.9-2.3  c-4.3,0-5.8,5.4-3.2,8.9c0.9,1.3,1.9,2.2,3.1,3.1C205.9,42.4,209.8,38.8,214.6,38.8z"/>
<g>
	<path class="st2" d="M213.4,35.1c-2.7,0-3.9,2.3-3.9,2.3s-1.2-2.3-3.9-2.3c-4.3,0-5.8,5.4-3.2,8.9c1.8,2.5,4,3.7,7.2,5.8   c3.2-2.1,5.3-3.3,7.2-5.8C219.2,40.4,217.7,35,213.4,35.1z"/>
</g>
</svg>
