<?xml version="1.0" encoding="utf-8" standalone="no"?>
<!-- Generator: Adobe Illustrator 28.1.0, SVG Export Plug-In . SVG Version: 6.00 Build 0)  --><svg xmlns="http://www.w3.org/2000/svg" xmlns:xlink="http://www.w3.org/1999/xlink" id="Layer_2" style="enable-background:new 0 0 250 250;" version="1.1" viewBox="0 0 250 250" x="0px" xml:space="preserve" y="0px">
<style type="text/css">
	.st0{fill:#AFAFD5;}
	.st1{fill:none;stroke:#5B2487;stroke-width:2;stroke-miterlimit:10;}
	.st2{fill:none;stroke:#5B2487;stroke-width:2;stroke-linecap:round;stroke-linejoin:round;stroke-miterlimit:10;}
	.st3{fill:none;stroke:#5B2487;stroke-width:2;stroke-linecap:round;stroke-miterlimit:10;}
	.st4{fill:#4EE48A;}
	.st5{fill:none;stroke:#D7ECF5;stroke-width:11;stroke-miterlimit:10;}
	.st6{fill:#FFFFFF;}
	.st7{clip-path:url(#SVGID_00000182524548547094912530000014018645949305846176_);fill:#AFAFD5;}
	.st8{clip-path:url(#SVGID_00000124162453554007405480000009047229760025198232_);fill:#AFAFD5;}
	.st9{clip-path:url(#SVGID_00000085961599951059817960000015311110449208124818_);fill:#AFAFD5;}
	.st10{fill-rule:evenodd;clip-rule:evenodd;fill:#AFAFD5;}
	.st11{fill-rule:evenodd;clip-rule:evenodd;fill:none;stroke:#5B2487;stroke-width:2;stroke-linecap:round;stroke-miterlimit:10;}
	.st12{fill:#761C5C;}
	.st13{fill:#6E1B58;}
	.st14{fill:none;stroke:#D6EBF4;stroke-width:2;stroke-linecap:round;stroke-linejoin:round;stroke-miterlimit:10;}
	.st15{fill:#FFFFFF;stroke:#5B2487;stroke-width:2;stroke-linecap:round;stroke-linejoin:round;stroke-miterlimit:10;}
	.st16{fill:#5B2487;}
	.st17{fill:#761B5C;}
	.st18{fill:none;stroke:#5B2487;stroke-linecap:round;stroke-linejoin:round;stroke-miterlimit:10;}
	.st19{fill:none;stroke:#5B2487;stroke-width:0.772;stroke-linecap:round;stroke-linejoin:round;stroke-miterlimit:10;}
	.st20{opacity:0.3;fill:none;stroke:#5B2487;stroke-linecap:round;stroke-linejoin:round;stroke-miterlimit:10;}
	.st21{fill:none;stroke:#5B2487;stroke-width:1.2537;stroke-linecap:round;stroke-linejoin:round;stroke-miterlimit:10;}
	.st22{fill:none;stroke:#5B2487;stroke-width:0.5;stroke-linecap:round;stroke-linejoin:round;stroke-miterlimit:10;}
	.st23{opacity:0.3;fill:none;stroke:#5B2487;stroke-width:2;stroke-linecap:round;stroke-linejoin:round;stroke-miterlimit:10;}
	.st24{opacity:0.3;fill:none;stroke:#5B2487;stroke-width:2.344;stroke-linecap:round;stroke-linejoin:round;stroke-miterlimit:10;}
	.st25{opacity:0.3;fill:none;stroke:#5B2487;stroke-miterlimit:10;}
	.st26{fill:none;stroke:#5B2487;stroke-width:2.0576;stroke-linecap:round;stroke-linejoin:round;stroke-miterlimit:10;}
	.st27{fill:#BC0C73;}
	.st28{fill:none;stroke:#5B2487;stroke-width:0.4618;stroke-linecap:round;stroke-linejoin:round;stroke-miterlimit:9.9996;}
	.st29{fill:none;stroke:#207AB4;stroke-width:0.6927;stroke-linecap:round;stroke-linejoin:round;stroke-miterlimit:10;}
	.st30{fill:#BC0C73;stroke:#5B2487;stroke-width:0.2309;stroke-miterlimit:10;}
	.st31{fill:none;stroke:#BC0C73;stroke-width:0.6927;stroke-linecap:round;stroke-linejoin:round;stroke-miterlimit:10;}
	.st32{fill:none;stroke:#5B2487;stroke-width:1.1545;stroke-linecap:round;stroke-linejoin:round;stroke-miterlimit:10;}
	.st33{opacity:0.45;fill:#5A5A5B;enable-background:new    ;}
	.st34{fill:none;stroke:#207AB4;stroke-width:0.4618;stroke-linecap:round;stroke-linejoin:round;stroke-miterlimit:10.0001;}
	.st35{fill:none;stroke:#5B2487;stroke-width:0.6927;stroke-linecap:round;stroke-linejoin:round;stroke-miterlimit:10;}
	.st36{fill:none;stroke:#AFAFD5;stroke-width:2;stroke-miterlimit:10;}
	.st37{fill:none;stroke:#5B2487;stroke-width:2;stroke-linejoin:round;stroke-miterlimit:10;}
	.st38{fill:#FFFFFF;stroke:#5B2487;stroke-width:2;stroke-miterlimit:10;}
	.st39{fill:none;stroke:#D5EBF4;stroke-width:10.0998;stroke-miterlimit:10;}
	.st40{fill:none;stroke:#FFFFFF;stroke-width:1.1222;stroke-miterlimit:10;}
	.st41{fill:none;stroke:#5B2487;stroke-linecap:round;stroke-miterlimit:10;}
	.st42{fill:none;stroke:#5B2487;stroke-width:1.8782;stroke-miterlimit:10;}
	
		.st43{clip-path:url(#SVGID_00000020370443699878030260000008244573219156384939_);fill:none;stroke:#5B2487;stroke-width:2;stroke-linecap:round;stroke-miterlimit:10;}
	
		.st44{fill-rule:evenodd;clip-rule:evenodd;fill:none;stroke:#5B2487;stroke-width:2;stroke-linecap:round;stroke-miterlimit:10;stroke-dasharray:12;}
	.st45{fill:none;stroke:#5B2487;stroke-width:1.6846;stroke-linecap:round;stroke-miterlimit:10;}
	.st46{fill:none;stroke:#5B2487;stroke-width:1.5468;stroke-linecap:round;stroke-linejoin:round;stroke-miterlimit:10;}
	.st47{fill:none;stroke:#5B2487;stroke-width:1.5148;stroke-miterlimit:10;}
	.st48{fill:none;stroke:#5B2487;stroke-width:1.3122;stroke-linecap:round;stroke-linejoin:round;stroke-miterlimit:10;}
	.st49{fill:#771C5C;}
	.st50{fill:#FFFFFF;stroke:#6E1B58;stroke-width:2;stroke-miterlimit:10;}
	.st51{fill:#FFFFFF;stroke:#6E1B58;stroke-width:0.8136;stroke-miterlimit:10;}
	.st52{fill:none;stroke:#761C5D;stroke-width:2;stroke-miterlimit:10;}
	.st53{fill:#FFFFFF;stroke:#6E1B58;stroke-width:1.9527;stroke-miterlimit:10;}
	.st54{fill:none;stroke:#5B2487;stroke-width:1.3606;stroke-linecap:round;stroke-linejoin:round;stroke-miterlimit:10;}
	.st55{fill:#FFFFFF;stroke:#5B2487;stroke-width:2;stroke-linecap:round;stroke-miterlimit:10;}
	
		.st56{fill-rule:evenodd;clip-rule:evenodd;fill:none;stroke:#5B2487;stroke-width:2;stroke-linecap:round;stroke-linejoin:round;stroke-miterlimit:10;}
	.st57{fill:none;stroke:#5B2487;stroke-width:1.7284;stroke-linecap:round;stroke-linejoin:round;stroke-miterlimit:10;}
	.st58{fill:none;stroke:#5B2487;stroke-miterlimit:10;}
	.st59{fill:none;stroke:#5B2487;stroke-width:1.643;stroke-linecap:round;stroke-miterlimit:10;}
	.st60{fill:#FFBF00;}
	.st61{fill:none;stroke:#5B2487;stroke-width:2.4807;stroke-linecap:round;stroke-linejoin:round;stroke-miterlimit:10;}
	.st62{fill:none;stroke:#5B2487;stroke-width:3.3159;stroke-linecap:round;stroke-linejoin:round;stroke-miterlimit:10;}
	.st63{fill:none;stroke:#5B2487;stroke-width:3.1092;stroke-linecap:round;stroke-linejoin:round;stroke-miterlimit:10;}
	.st64{fill:#D2222D;}
	.st65{fill:#238823;}
	.st66{fill:none;stroke:#5B2487;stroke-width:1.7655;stroke-linecap:round;stroke-linejoin:round;stroke-miterlimit:10;}
	.st67{fill:none;stroke:#5B2487;stroke-width:1.4059;stroke-linecap:round;stroke-linejoin:round;stroke-miterlimit:10;}
	.st68{fill:none;stroke:#5B2487;stroke-width:1.5094;stroke-linecap:round;stroke-miterlimit:10;}
	.st69{fill:none;stroke:#5B2487;stroke-width:1.5094;stroke-linecap:round;stroke-linejoin:round;stroke-miterlimit:10;}
	.st70{fill:#771B5C;}
	.st71{fill:none;}
	.st72{fill:#C4C4C4;}
	.st73{fill:none;stroke:#5B2487;stroke-width:1.708;stroke-linecap:round;stroke-miterlimit:10;}
	.st74{fill:none;stroke:#5B2487;stroke-width:2;stroke-linecap:round;stroke-miterlimit:10;stroke-dasharray:8;}
	.st75{fill:none;stroke:#5B2487;stroke-width:4;stroke-linecap:round;stroke-miterlimit:10;}
	.st76{fill:none;stroke:#39393B;stroke-width:10;stroke-miterlimit:10;}
	.st77{fill:none;stroke:#39393B;stroke-width:8;stroke-miterlimit:10;}
	.st78{fill:none;stroke:#39393B;stroke-width:4;stroke-miterlimit:10;}
	.st79{fill:#39393B;}
	.st80{fill:none;stroke:#39393B;stroke-width:10;stroke-linecap:round;stroke-miterlimit:10;}
</style>
<path class="st0" d="M213.4,158.9l-21.3-33.2c-1.5-2.3-3.9-3.7-6.5-3.7h-31.8c-3.9,21.4-17.8,39.8-37.1,51l90.3-0.2  C213.4,172.8,217.2,164.7,213.4,158.9z"/>
<g>
	<path class="st4" d="M214.5,154.6c4.6-15.8,7.2-33.2,11.2-50.7c-13.5-1.1-20.4-1.8-33.8-3.2c-0.1,6.3-0.1,12.6-0.2,19"/>
</g>
<g>
	<path class="st4" d="M144.5,117.6c-0.2-13.8,0.2-25.7,1.4-40.6c-12.3-0.4-18.5-0.7-30.8-1.2c-0.4,15.2-0.1,27.5,0.5,41.5"/>
</g>
<g>
	<path class="st4" d="M36.8,155.5c-5.4-17.4-5.9-32.9-9.8-49.7c14.1-1.2,21.3-1.9,35.4-3.5c0.1,5.7,0.1,11.4,0.2,17.2"/>
</g>
<circle class="st2" cx="213.7" cy="77.8" r="16.1"/>
<g>
	<path class="st2" d="M211.5,151.6c4.6-15.8,7.2-33.2,11.2-50.7c-13.5-1.1-20.4-1.8-33.8-3.2c-0.1,6.3-0.1,12.6-0.2,19"/>
</g>
<circle class="st2" cx="41.9" cy="75.4" r="16.8"/>
<g>
	<path class="st2" d="M33.8,152.5c-5.4-17.4-5.9-32.9-9.8-49.7c14.1-1.2,21.3-1.9,35.4-3.5c0.1,5.7,0.1,11.4,0.2,17.2"/>
</g>
<circle class="st2" cx="127.4" cy="54.1" r="13.2"/>
<polyline class="st2" points="142.5,79.9 160.1,92.3 179.2,84.6 "/>
<polyline class="st2" points="112,79.8 98.2,98.6 103.8,110.6 "/>
<g>
	<path class="st2" d="M141.5,114.6c-0.2-13.8,0.2-25.7,1.4-40.6c-12.3-0.4-18.5-0.7-30.8-1.2c-0.4,15.2-0.1,27.5,0.5,41.5"/>
</g>
<path class="st1" d="M202.9,168.8L44,169.2c-6.5,0-10.3-8.1-6.5-13.9l21.8-33.6c1.5-2.3,3.9-3.7,6.5-3.7h115.8c2.6,0,5,1.4,6.5,3.7  l21.3,33.2C213.2,160.7,209.4,168.8,202.9,168.8z"/>
<polyline class="st2" points="42.9,112.7 61.9,125.5 88.2,127.9 "/>
<polyline class="st2" points="59.5,108.4 70.7,121.8 84.4,120.4 "/>
<polyline class="st2" points="204.7,109.9 189.7,133.6 175.2,130.9 "/>
<line class="st1" x1="64.8" x2="64.8" y1="169.2" y2="213.1"/>
<line class="st1" x1="184.7" x2="184.7" y1="169.2" y2="213.1"/>
</svg>
