<svg width="147" height="259" viewBox="0 0 147 259" fill="none" xmlns="http://www.w3.org/2000/svg">
<path d="M94.8908 215.531L93.0078 228.835L107.675 235.709V243.242L113.032 241.534L128.139 211.014L120.114 207.334L105.422 215.196L94.8908 215.531Z" fill="#6F6FAF"/>
<path d="M107.674 243.242V235.709L93.0066 228.835L82.3644 227.947L56.8906 246.364L61.8408 258.049L107.674 243.242Z" fill="#6F6FAF"/>
<path d="M76.3875 143.097L95.2198 133.991L113.324 133.608L97.0838 160.469L75.7941 169.254L55.0816 173.951L39.152 171.715L42.8855 166.308L22.8906 149.472L26.9695 134.771L40.5413 142.884L40.5683 128.034L58.977 94.2952L75.2383 98.8575L103.725 94.2952L103.831 105.06L76.3875 143.097Z" fill="#6F6FAF"/>
<path d="M32.2773 100.625L28.2335 123.863L12.5575 138.325L6.67127 161.517L0 166.276L2.87299 130.376L15.7839 111.868L32.2773 100.625Z" fill="#6F6FAF"/>
<path d="M137.044 28.8822L146.094 6.08942L143.526 0L123.234 20.1191L130.38 32.3789L137.044 28.8822Z" fill="#6F6FAF"/>
<path d="M122.55 56.7441L104.387 67.0074L102.086 77.7077L110.942 85.4159L123.691 65.4371L122.55 56.7441Z" fill="#6F6FAF"/>
<path d="M91.4266 205.144L85.8047 209.876L88.6156 214.643L94.893 215.531L105.425 215.196L120.116 207.334L109.493 202.467L96.7193 207.453L91.4266 205.144Z" fill="#23014A"/>
<path d="M82.3716 227.947L61.3516 207.458L69.5119 201.782L85.8084 209.876L88.6193 214.643L94.8967 215.531L93.0138 228.835L82.3716 227.947Z" fill="#6F6FAF"/>
<path d="M87.6797 202.205L92.2306 196.904L96.9973 195.69L98.0602 189.406L110.434 188.702L114.378 195.922L98.7427 203.034L87.6797 202.205Z" fill="#23014A"/>
<path d="M104.384 186.97L95.3438 167.854L109.865 163.084L113.858 171.955L120.915 172.433L116.269 182.388L104.384 186.97Z" fill="#23014A"/>
<path d="M113.318 133.608L126.213 133.333L135.806 140.523L120.907 172.433L113.85 171.955L109.857 163.084L95.336 167.854L83.0078 166.276L97.0787 160.47L113.318 133.608Z" fill="#6F6FAF"/>
<path d="M75.7897 169.255L69.8576 170.601L65.625 186.368L73.8285 183.044L78.7086 185.704L76.1566 192.023L92.2318 196.904L96.9986 195.69L98.0614 189.406L104.377 186.97L95.3368 167.854L83.0086 166.276L75.7897 169.255Z" fill="#6F6FAF"/>
<path d="M62.4171 188.701L65.63 186.368L73.8335 183.044L78.7136 185.704L76.1616 192.023L92.2368 196.903L87.6859 202.205H85.0072L91.4303 205.143L85.8084 209.875L69.5119 201.781L61.3516 207.458L61.5296 202.467L63.1914 194.13L62.4171 188.701Z" fill="#6F6FAF"/>
<path d="M51.7287 220.725L49.1875 231.015C49.1875 231.015 54.9712 233.435 55.1709 233.168C55.3732 232.898 61.1542 222.611 60.9546 222.543C60.755 222.476 51.7287 220.728 51.7287 220.728V220.725Z" fill="#6F6FAF"/>
<path d="M61.3522 207.458L60.9692 218.253L66.8473 223.663L56.8984 246.364L82.3723 227.947L61.3522 207.458Z" fill="#6F6FAF"/>
<path d="M42.2664 231.565L48.587 221.483L52.2558 210.237L60.9637 218.253L61.5249 202.467L63.1866 194.13L62.4124 188.702L65.6253 186.368L69.8579 170.601L55.0775 173.952L39.1479 171.715L27.6425 179.013L26.6525 193.901L39.21 192.377L52.102 177.832L42.8976 196.909L25.9807 208.276L23.9062 213.801L28.5246 221.82L43.2187 204.755L44.3679 206.684L37.3999 224.232L42.2664 231.565Z" fill="#6F6FAF"/>
</svg>
