<svg xmlns="http://www.w3.org/2000/svg" viewBox="0 0 565 112"><g clip-path="url(#brandscotland-logo2 1__a)"><path d="M28.315 111.692c-.454 0-.684-.254-.684-.756 0-.869.002-2.461.002-7.625 0-1-.487-1.899-1.378-2.349C-3.965 88.433 3.263 56.029 3.34 55.704c.063-.268.46-.392.806-.412.382-.022.712.156.782.342 8.184 21.79 19.97 26.371 26.269 27.686l.188.036a.494.494 0 0 0 .472-.357c.066-.216-.001-.46-.202-.568-22.31-11.966-21.34-34.949-20.67-38.731.02-.117.267-.322.72-.345.412-.021.649.162.683.262 11.368 33.473 32.5 23.768 33.875 23.055a.491.491 0 0 0 .257-.56.508.508 0 0 0-.495-.39C29.792 69.344 20.565 53.6 17.294 43.146c-2.13-6.818-4.748-22.935-16.63-33.136-.158-.136-.356-.566.058-.811 5.355-3.174 9.785-4.996 14.86-6.419.233-.072.443.078.51.144C27.869 14.483 26.958 40.818 38.1 47.75c.104.065.206.12.323.12a.519.519 0 0 0 .46-.291c.086-.175.087-.393-.056-.53-10.497-10.114-7.975-30.713-16.57-45.05-.132-.22-.08-.679.35-.742C25.1.89 27.73.586 31.14.556c3.534-.031 5.98.195 8.088.444.335.04.459.38.42.584-2.16 11.533-3.838 25.646 1.094 32.273a.48.48 0 0 0 .388.189c.165 0 .32-.082.414-.217a.491.491 0 0 0 .054-.456c-3.34-8.968-2.053-19.477 4.09-30.88.063-.116.279-.28.475-.23 3.674.872 8.232 2.433 12.555 4.589.22.11.375.475.169.738-5.944 7.604-13.141 17.917-5.347 30.26.066.084.147.401-.116.722-.212.259-.547.362-.677.287-3.61-2.182-6.282-8.382-7.071-11.791a.497.497 0 0 0-.979.106c-.146 7.468 5.198 15.816 8.104 18.197.102.084.3.384.12.801-.164.383-.488.392-.62.391-4.966-.045-9.541-4.702-11.626-6.724l-.236-.229a.5.5 0 0 0-.775.093.493.493 0 0 0-.036.475c2.836 6.409 7.64 10.465 14.582 11.486.094.014.363.113.483.58.092.356-.093.684-.298.786-3.28 1.78-6.507 2.675-10.04 2.703-12.966.101-17.713-13.444-22.804-25.866-1.404-3.426-2.73-6.663-4.21-9.612a.502.502 0 0 0-.457-.283.513.513 0 0 0-.43.226.456.456 0 0 0-.024.446c1.516 3.309 2.747 7.116 4.05 11.146 4.135 12.782 8.576 28.961 24.292 28.961.002 0-.002 0 0 0 3.624 0 7.983-.383 12.52-1.92.005 0-.005.001 0 0 .25-.058.48-.017.798.296.182.18.286.575.18.772-6.843 12.886-17.5 16.432-30.193 12.613l-.184-.034a.501.501 0 0 0-.462.312c-.08.188-.024.384.106.544 5.87 7.236 21.983 6.903 33.222-2.516 0 0-.001.001 0 0 .132-.099.522-.146.906.227.448.435.267.793.216.875-15.741 25.274-42.245 18.676-50.737 5.846a.49.49 0 0 0-.412-.218c-.18 0-.35.096-.444.25a.497.497 0 0 0-.013.495c5.183 10.04 14.949 14.7 24.19 18.093 1.208.496 2.375 1.917 2.375 4.119v7.707a.884.884 0 0 1-.404.747c-2.1 1.34-5.836 2.554-8.122 2.733Zm472.32-19.985h-10.968s-4.88-9.539-17.413-26.726c-7.89-10.82-14.694-17.927-14.694-17.927l-.064 44.654h-10.735l-.078-63.279h10.906s3.121 2.164 20.291 25.485c9.859 13.39 11.966 18.717 11.966 18.717V28.428h10.721l.068 63.279ZM109.849 55.684c-9.641-1.048-16.304-4.091-16.304-9.169 0-5.04 7.533-8.107 13.859-7.909 10.288.324 15.041 5.313 17.284 8.731l3.75-10.552c-6.085-5.218-11.183-7.898-20.697-8.252-12.995-.484-24.786 6.404-25.137 17.559-.235 7.467 4.01 15.961 21.021 18.395 10.767 1.541 15.546 3.06 15.546 8.996 0 5.142-8.3 7.826-14.511 7.631-9.531-.3-16.826-5.847-19.513-10.807l-3.655 10.521c2.958 4.032 11.857 10.318 22.837 10.663 12.997.409 25.061-6.797 25.414-18.042.236-7.466-2.639-15.89-19.894-17.765Zm206.503-17.071h-14.899v53.12h-10.716v-53.12h-14.898V28.338h40.513v10.275Zm51.555 43.726-3.094 9.393h-34.355l-.047-63.394h10.83l-.07 54 26.736.001Zm185.7-22.352c0-25.234-26.925-21.269-26.925-21.269v42.538s26.925 3.604 26.925-21.269Zm-26.925-31.543c15.729 0 37.843 3.514 37.843 31.542 0 26.946-21.744 31.542-37.843 31.542h-10.825V28.444h10.825ZM190.758 71.29l4.48 10.562c-2.202 3.049-10.198 9.61-22.493 9.61-17.075 0-30.965-14.12-30.965-31.477 0-17.356 13.89-31.437 30.965-31.476 5.594-.013 14.475 1.49 22.493 9.813l-4.465 10.636c-6.036-7.924-11.487-9.927-18.028-9.927-11.413 0-20.614 9.353-20.614 20.954 0 11.602 9.201 20.954 20.614 20.954 7.924.001 14.09-3.692 18.013-9.649Zm46.261-32.457c-11.681 0-21.186 9.509-21.186 21.19 0 9.625 6.453 17.775 15.26 20.346 1.881.549 3.87.844 5.926.844 11.685 0 21.19-9.508 21.19-21.19-.001-11.681-9.505-21.19-21.19-21.19Zm0 52.684c-17.365 0-31.494-14.129-31.494-31.494 0-17.365 14.129-31.493 31.494-31.493 17.368 0 31.494 14.129 31.494 31.493 0 17.365-14.126 31.494-31.494 31.494Zm172.203-63.122-2.572-.016v-.002l-2.574.016s-14.137 27.429-24.983 63.364h11.288a216.955 216.955 0 0 1 2.185-7.186c3.349 1.219 6.802 1.837 10.285 1.837 2.834 0 5.652-.414 8.373-1.231a28.686 28.686 0 0 0 8.526-4.187 194.365 194.365 0 0 1 3.166 10.768h11.288c-10.846-35.935-24.982-63.363-24.982-63.363Zm-.979 47.524a19.7 19.7 0 0 1-5.479.776 20.47 20.47 0 0 1-7.088-1.279c4.245-11.955 8.947-23.339 10.973-27.665 1.751 3.739 5.754 12.714 9.697 23.431a19.113 19.113 0 0 1-8.103 4.737Z"/></g><defs><clipPath id="brandscotland-logo2 1__a"><path fill="#fff" d="M0 0h565v112H0z"/></clipPath></defs></svg>