<?xml version="1.0" encoding="UTF-8"?>
<svg id="Layer_1" xmlns="http://www.w3.org/2000/svg" version="1.1" viewBox="0 0 565 112">
  <!-- Generator: Adobe Illustrator 30.0.0, SVG Export Plug-In . SVG Version: 2.1.1 Build 123)  -->
  <defs>
    <style>
      .st0 {
        fill: #fff;
      }
    </style>
  </defs>
  <path class="st0" d="M28.32,111.69c-.45,0-.68-.25-.68-.76,0-.87,0-2.46,0-7.62,0-1-.49-1.9-1.38-2.35C-3.96,88.43,3.26,56.03,3.34,55.7c.06-.27.46-.39.81-.41.38-.02.71.16.78.34,8.18,21.79,19.97,26.37,26.27,27.69l.19.04c.22,0,.41-.15.47-.36.07-.22,0-.46-.2-.57-22.31-11.97-21.34-34.95-20.67-38.73.02-.12.27-.32.72-.35.41-.02.65.16.68.26,11.37,33.47,32.5,23.77,33.88,23.05.21-.1.31-.34.26-.56-.05-.23-.26-.39-.49-.39-16.23,3.62-25.46-12.12-28.73-22.58C15.16,36.33,12.55,20.21.66,10.01c-.16-.14-.36-.57.06-.81,5.36-3.17,9.78-5,14.86-6.42.23-.07.44.08.51.14,11.78,11.56,10.87,37.89,22.01,44.83.1.06.21.12.32.12.2,0,.37-.11.46-.29.09-.17.09-.39-.06-.53-10.5-10.11-7.98-30.71-16.57-45.05-.13-.22-.08-.68.35-.74,2.49-.37,5.12-.67,8.53-.7,3.53-.03,5.98.19,8.09.44.33.04.46.38.42.58-2.16,11.53-3.84,25.65,1.09,32.27.09.12.24.19.39.19.17,0,.32-.08.41-.22.09-.13.11-.3.05-.46-3.34-8.97-2.05-19.48,4.09-30.88.06-.12.28-.28.47-.23,3.67.87,8.23,2.43,12.56,4.59.22.11.38.47.17.74-5.94,7.6-13.14,17.92-5.35,30.26.07.08.15.4-.12.72-.21.26-.55.36-.68.29-3.61-2.18-6.28-8.38-7.07-11.79-.07-.27-.34-.43-.6-.36-.22.05-.37.25-.38.47-.15,7.47,5.2,15.82,8.1,18.2.1.08.3.38.12.8-.16.38-.49.39-.62.39-4.97-.04-9.54-4.7-11.63-6.72l-.24-.23c-.2-.19-.51-.19-.71,0-.03.03-.05.06-.07.09-.09.14-.11.32-.04.47,2.84,6.41,7.64,10.47,14.58,11.49.09.01.36.11.48.58.09.36-.09.68-.3.79-3.28,1.78-6.51,2.67-10.04,2.7-12.97.1-17.71-13.44-22.8-25.87-1.4-3.43-2.73-6.66-4.21-9.61-.08-.17-.26-.29-.46-.28-.17,0-.33.08-.43.23-.09.13-.09.3-.02.45,1.52,3.31,2.75,7.12,4.05,11.15,4.14,12.78,8.58,28.96,24.29,28.96,0,0,0,0,0,0,3.62,0,7.98-.38,12.52-1.92,0,0,0,0,0,0,.25-.06.48-.02.8.3.18.18.29.58.18.77-6.84,12.89-17.5,16.43-30.19,12.61l-.18-.03c-.2,0-.39.12-.46.31-.08.19-.02.38.11.54,5.87,7.24,21.98,6.9,33.22-2.52,0,0,0,0,0,0,.13-.1.52-.15.91.23.45.43.27.79.22.88-15.74,25.27-42.24,18.68-50.74,5.85-.09-.14-.25-.22-.41-.22-.18,0-.35.1-.44.25-.09.15-.1.34-.01.5,5.18,10.04,14.95,14.7,24.19,18.09,1.21.5,2.38,1.92,2.38,4.12v7.71c0,.3-.15.58-.4.75-2.1,1.34-5.84,2.55-8.12,2.73h0ZM500.64,91.71h-10.97s-4.88-9.54-17.41-26.73c-7.89-10.82-14.69-17.93-14.69-17.93l-.06,44.65h-10.73l-.08-63.28h10.91s3.12,2.16,20.29,25.49c9.86,13.39,11.97,18.72,11.97,18.72V28.43h10.72l.07,63.28h0ZM109.85,55.68c-9.64-1.05-16.3-4.09-16.3-9.17s7.53-8.11,13.86-7.91c10.29.32,15.04,5.31,17.28,8.73l3.75-10.55c-6.08-5.22-11.18-7.9-20.7-8.25-13-.48-24.79,6.4-25.14,17.56-.24,7.47,4.01,15.96,21.02,18.4,10.77,1.54,15.55,3.06,15.55,9,0,5.14-8.3,7.83-14.51,7.63-9.53-.3-16.83-5.85-19.51-10.81l-3.65,10.52c2.96,4.03,11.86,10.32,22.84,10.66,13,.41,25.06-6.8,25.41-18.04.24-7.47-2.64-15.89-19.89-17.77ZM316.35,38.61h-14.9v53.12h-10.72v-53.12h-14.9v-10.28h40.51v10.27ZM367.91,82.34l-3.09,9.39h-34.36l-.05-63.39h10.83l-.07,54h26.74s0,0,0,0ZM553.61,59.99c0-25.23-26.92-21.27-26.92-21.27v42.54s26.92,3.6,26.92-21.27ZM526.68,28.44c15.73,0,37.84,3.51,37.84,31.54s-21.74,31.54-37.84,31.54h-10.83V28.44s10.83,0,10.83,0ZM190.76,71.29l4.48,10.56c-2.2,3.05-10.2,9.61-22.49,9.61-17.07,0-30.96-14.12-30.96-31.48s13.89-31.44,30.96-31.48c5.59-.01,14.48,1.49,22.49,9.81l-4.46,10.64c-6.04-7.92-11.49-9.93-18.03-9.93-11.41,0-20.61,9.35-20.61,20.95s9.2,20.95,20.61,20.95c7.92,0,14.09-3.69,18.01-9.65ZM237.02,38.83c-11.68,0-21.19,9.51-21.19,21.19,0,9.62,6.45,17.78,15.26,20.35,1.88.55,3.87.84,5.93.84,11.68,0,21.19-9.51,21.19-21.19,0-11.68-9.51-21.19-21.19-21.19h0ZM237.02,91.52c-17.37,0-31.49-14.13-31.49-31.49s14.13-31.49,31.49-31.49,31.49,14.13,31.49,31.49-14.13,31.49-31.49,31.49ZM409.22,28.39l-2.57-.02h0s-2.57.01-2.57.01c0,0-14.14,27.43-24.98,63.36h11.29c.69-2.41,1.42-4.8,2.18-7.19,3.35,1.22,6.8,1.84,10.29,1.84,2.83,0,5.65-.41,8.37-1.23,3.05-.91,5.94-2.33,8.53-4.19,1.16,3.56,2.21,7.15,3.17,10.77h11.29c-10.85-35.94-24.98-63.36-24.98-63.36h0ZM408.24,75.92c-1.78.52-3.63.78-5.48.78-2.42,0-4.82-.44-7.09-1.28,4.24-11.96,8.95-23.34,10.97-27.67,1.75,3.74,5.75,12.71,9.7,23.43-2.27,2.23-5.05,3.86-8.1,4.74h0Z"/>
</svg>