<svg xmlns="http://www.w3.org/2000/svg" xmlns:xlink="http://www.w3.org/1999/xlink" version="1.1" x="0px" y="0px" viewBox="0 0 100 100" enable-background="new 0 0 100 100" xml:space="preserve"><path d="M95,83.473v2.001l-1.731,0.994c-5.968,3.444-12.65,5.377-19.471,5.839l0,0c-0.981,0.064-1.962,0.172-2.941,0.172  c-3.879,0-7.733-0.503-11.462-1.479c-0.071-0.019-0.14-0.046-0.211-0.065c-1.741-0.464-3.453-1.034-5.128-1.702  c-0.281-0.112-0.55-0.251-0.829-0.369c-3.991-1.687-7.719-3.991-11.114-6.797c-1.547-1.283-3.006-2.667-4.369-4.148  c-0.51-0.554-1.02-1.108-1.505-1.691c-1.556-1.873-3.005-3.841-4.247-5.955c-0.058-0.098-0.131-0.182-0.188-0.281l-0.012-0.003  c-1.52-2.633-2.746-5.411-3.701-8.274c1.784-1.81,3.718-3.425,5.851-4.746c0.859,3.33,2.115,6.56,3.852,9.568  c0.831,1.439,1.771,2.802,2.776,4.114c0.242,0.315,0.51,0.597,0.76,0.903c0.778,0.954,1.584,1.879,2.449,2.751  c0.331,0.333,0.68,0.639,1.022,0.959c0.853,0.799,1.732,1.564,2.655,2.281c0.338,0.262,0.682,0.51,1.028,0.759  c0.506,0.366,0.983,0.772,1.507,1.113c0.033-0.021-0.033,0.021,0,0c2.189,1.416,4.52,2.62,6.93,3.556c-0.019,0.015,0.019-0.015,0,0  c2.729,1.061,5.584,1.76,8.481,2.161c0.558,0.081,1.118,0.123,1.68,0.179c0.853,0.08,1.703,0.142,2.56,0.165  c0.405,0.013,0.805,0.078,1.211,0.078c0.367,0,0.735-0.047,1.103-0.071c5.55-0.175,11.073-1.504,16.067-4.04  c-0.433-8.077-3.458-15.73-8.435-21.903c0.687-2.848,1.122-5.733,1.322-8.645C89.735,59.304,95,71.035,95,83.473z M59.141,39.454  c-4.255-0.862-8.639-1.105-12.969-0.753c-2.671,0.229-5.293,0.705-7.846,1.394c-0.183,0.049-0.36,0.121-0.543,0.172  c-5.037,1.429-9.787,3.704-14.028,6.755c-0.077,0.055-0.153,0.112-0.229,0.167c-2.144,1.563-4.182,3.289-6.037,5.224l0,0  C9.613,60.688,5,71.784,5,83.473v2.001l1.731,0.994c10.63,6.141,23.592,7.421,35.244,4.052c-2.438-1.627-4.758-3.421-6.897-5.443  c-7.804,1.186-15.992-0.016-23.1-3.632c0.467-8.666,3.939-16.816,9.581-23.197c0,0,0.261-0.29,0.391-0.432  c1.318-1.445,2.727-2.74,4.266-3.976c0.004,0.029-0.004-0.029,0,0c2.041-1.634,4.206-3.091,6.527-4.269  c-0.001-0.017,0.001,0.017,0,0c2.474-1.258,5.103-2.175,7.791-2.841c1.864-0.48,3.745-0.862,5.681-1.057l0,0  c4.676-0.436,9.438-0.035,13.97,1.193C60.15,44.375,59.792,41.905,59.141,39.454z M73.794,41.877  c-0.031-0.247-0.045-0.497-0.081-0.743c-0.322-2.209-0.792-4.407-1.444-6.576h0.038C69.038,23.726,61.761,14.309,51.731,8.519  L50,7.522l-1.731,0.997C37.495,14.741,29.969,25.17,27.103,37.025c2.618-1.292,5.341-2.357,8.151-3.194  C38.11,26.433,43.226,19.991,50,15.577c6.998,4.556,12.208,11.283,15.001,18.981h0.003c0.006,0.016,0.007,0.034,0.013,0.05  c0.832,2.304,1.473,4.686,1.851,7.133c-0.022-0.009,0.022,0.009,0,0c0.398,2.577,0.528,5.197,0.392,7.778  c0.041,0.021-0.041-0.021,0,0c-0.098,1.837-0.376,3.653-0.739,5.453c-0.02,0.097-0.047,0.192-0.068,0.289  c-0.459,2.188-1.097,4.334-1.934,6.415c-0.004,0.011-0.005,0.022-0.01,0.033h-0.002c-0.666,1.649-1.409,3.269-2.305,4.82  c-1.753,3.037-3.949,5.763-6.435,8.188c2.171,1.194,4.471,2.158,6.881,2.814c2.082-2.32,3.973-4.817,5.543-7.54  c1.577-2.724,2.827-5.604,3.795-8.571c0.634-1.949,1.119-3.932,1.478-5.936c0.044-0.238,0.096-0.474,0.136-0.712  C74.294,50.518,74.348,46.181,73.794,41.877z"/></svg>