<svg width="183" height="31" viewBox="0 0 183 31" fill="none" xmlns="http://www.w3.org/2000/svg">
<path fill-rule="evenodd" clip-rule="evenodd" d="M8.86683 7.4652L8.86343 7.46645H8.86726L8.86683 7.4652ZM9.18573 7.35929C9.07567 7.39335 8.96937 7.42742 8.86683 7.4652C8.42958 6.19869 8.01921 4.64919 7.79673 2.85873C7.68164 1.93643 7.62792 1.07535 7.62025 0.283165C7.62025 0.191316 7.68547 0.114777 7.77755 0.0956418C8.19962 0.0114477 8.80203 -0.0536113 9.50036 0.0726797C9.7843 0.122431 10.0337 0.195144 10.2524 0.275511C10.3598 0.317608 10.4059 0.443898 10.3522 0.543401C10.2716 0.696481 10.1948 0.853388 10.1296 1.01795C9.15119 3.45192 9.21642 5.56442 9.5157 7.26744C9.40828 7.29424 9.30084 7.32484 9.18573 7.35929ZM7.76221 7.9678C7.85429 7.91422 7.95406 7.85682 8.06532 7.80324C8.17659 7.74966 8.28403 7.6999 8.3838 7.66164C8.05381 6.76229 7.73918 5.77493 7.45525 4.70719C7.04469 3.15343 6.78378 1.70299 6.62262 0.397989C6.61111 0.309968 6.54205 0.241083 6.45379 0.233429C6.3195 0.221948 6.17753 0.21812 6.03172 0.221948C4.84609 0.264045 3.93673 0.86871 3.42258 1.30499C3.33815 1.3777 3.33048 1.50017 3.40723 1.58053C4.32042 2.52581 5.32956 3.7313 6.27728 5.22384C6.8912 6.19208 7.3785 7.11821 7.76605 7.96398L7.76221 7.9678ZM7.28767 8.27019L7.33629 8.23567H7.34012C7.10223 7.72286 6.82597 7.18325 6.49216 6.63216C5.27584 4.61916 3.79476 3.19169 2.54773 2.2158C2.48251 2.16222 2.39426 2.1584 2.3252 2.20431C2.0873 2.36122 1.81487 2.57554 1.55396 2.87786C0.978412 3.53994 0.775052 4.26324 0.694475 4.711C0.675291 4.82198 0.752031 4.92149 0.863303 4.93297C1.31607 4.98655 1.78034 5.09371 2.29449 5.27741C4.56982 6.09255 6.05857 7.67311 6.82214 8.63367C6.89658 8.56649 6.97759 8.50258 7.06211 8.43589L7.06216 8.43585L7.06219 8.43583L7.08305 8.41937C7.15067 8.36726 7.22075 8.3176 7.28737 8.27039L7.2874 8.27037L7.28756 8.27026L7.28767 8.27019ZM45.9978 3.19169H44.3325C44.2788 3.19169 44.2251 3.20699 44.179 3.23379C44.133 3.26057 44.0946 3.29885 44.0678 3.34476L44.0409 3.37921L43.8988 3.57056C43.8682 3.60884 43.849 3.65858 43.8451 3.70833C43.8451 3.72365 43.8451 3.74278 43.8528 3.75808C43.882 3.84917 43.9705 3.88822 44.0683 3.93139L44.0831 3.93795C44.1867 3.98005 44.2864 4.02214 44.3171 4.10634C44.3248 4.12547 44.3286 4.14845 44.3248 4.1714C44.3171 4.27856 44.2826 4.38188 44.2251 4.46991C44.2251 4.46991 41.896 8.77146 41.3243 9.83153L40.4802 4.54262C40.4725 4.50052 40.4687 4.46226 40.4725 4.42016C40.4725 4.16375 40.6259 4.09487 40.8139 4.01449C40.9483 3.9724 41.0634 3.8882 41.1478 3.77721C41.1478 3.78105 41.2936 3.55526 41.2936 3.55526C41.3204 3.51698 41.3358 3.47489 41.3396 3.42897C41.3396 3.38304 41.3358 3.33711 41.3127 3.29885C41.2859 3.26057 41.2475 3.23379 41.2053 3.21465C41.1631 3.19552 41.1171 3.19169 41.0711 3.19552H38.8686C38.6845 3.19552 38.5694 3.21082 38.4658 3.38304L38.3276 3.60501C38.3007 3.6471 38.2854 3.69685 38.2815 3.7466C38.2815 3.76956 38.2854 3.79253 38.2969 3.81549C38.316 3.85376 38.3429 3.88437 38.3774 3.91117C38.4121 3.93795 38.4505 3.95326 38.4888 3.96091C38.9645 4.09487 38.999 4.10635 39.0912 4.6383L40.2654 11.5575L40.3267 11.9326C40.3459 12.055 40.4533 12.143 40.5761 12.143H40.7909C40.9215 12.143 41.0404 12.0742 41.1018 11.9593L41.3051 11.5996L45.0078 4.88323L45.0095 4.88008L45.0095 4.88004C45.1742 4.58612 45.3619 4.25106 45.6715 4.05659L45.8558 3.96858L45.8625 3.96575C46.0131 3.90194 46.1409 3.84777 46.2202 3.70068L46.32 3.49785C46.3468 3.45575 46.3622 3.40982 46.3622 3.36391C46.3622 3.33328 46.3545 3.3065 46.3392 3.2797C46.2779 3.18032 46.1438 3.18403 46.0059 3.18785L46.0054 3.18786L45.9978 3.19169ZM46.9226 4.33009C46.9235 3.82978 47.2608 3.45576 47.7513 3.45576C48.2425 3.45576 48.4266 3.915 48.4266 4.17907C48.4266 4.74164 48.0582 5.07841 47.6132 5.07841C47.1153 5.07841 46.9232 4.65515 46.9226 4.33009ZM55.5327 4.3301C55.5336 3.82979 55.871 3.45576 56.3615 3.45576C56.8526 3.45576 57.0368 3.915 57.0368 4.17907C57.0368 4.74164 56.676 5.07841 56.2234 5.07841C55.7216 5.07841 55.5334 4.65515 55.5327 4.3301ZM74.3262 27.0836C72.6839 27.0836 70.9152 25.6868 70.9152 22.629L70.9074 22.6214C70.9074 18.9551 73.8964 14.8679 78.1785 14.8679C79.1953 14.864 80.2045 15.0822 81.1291 15.5031L81.394 15.6678C81.9118 15.9624 82.3186 16.1958 82.1115 17.543L80.8721 23.9991C80.8107 24.3512 80.7685 24.6994 80.8414 24.8526C80.9143 25.0056 81.1943 24.9521 81.1943 24.9521L81.8083 24.8142L81.8402 24.8085C82.1149 24.76 82.4007 24.7096 82.4414 24.9712C82.4414 24.9712 82.5334 25.4726 82.5334 25.4879C82.5603 25.8246 82.2611 25.9317 81.9387 26.0465L81.8006 26.0964L78.9767 27.0798C78.5085 27.2443 78.0404 26.8311 78.1478 26.3489C78.2458 25.9091 78.3569 25.4086 78.4503 24.9875C78.5325 24.6171 78.601 24.3082 78.6351 24.1559C77.672 25.6294 75.838 27.0836 74.3262 27.0836ZM78.0135 16.0619C75.3277 16.0619 73.3208 19.6937 73.3208 22.9389L73.3247 22.9428C73.3247 23.3676 73.3977 25.4917 74.848 25.4917C76.7281 25.4917 79.7248 21.3087 79.7248 17.8338C79.7248 16.234 78.5277 16.0619 78.0135 16.0619ZM165.543 22.5984C165.543 25.6562 167.312 27.053 168.954 27.053C170.465 27.053 172.3 25.5988 173.262 24.1253C173.19 24.4507 172.96 25.4917 172.776 26.3183C172.669 26.8005 173.137 27.2139 173.605 27.0492L176.428 26.0657L176.566 26.016C176.888 25.9011 177.187 25.7939 177.161 25.4573C177.161 25.4419 177.069 24.9406 177.069 24.9406C177.028 24.6788 176.742 24.7295 176.467 24.7782L176.436 24.7837L175.822 24.9215C175.822 24.9215 175.543 24.975 175.469 24.822C175.397 24.6688 175.438 24.3206 175.5 23.9685L176.739 17.5124C176.947 16.1652 176.54 15.9318 176.021 15.6372L175.757 15.4725C174.832 15.0516 173.822 14.8334 172.807 14.8373C168.524 14.8373 165.535 18.9245 165.535 22.5908L165.543 22.5984ZM167.949 22.9083C167.949 19.6631 169.956 16.0313 172.641 16.0313C173.155 16.0313 174.352 16.2036 174.352 17.8032C174.352 21.2781 171.355 25.4611 169.476 25.4611C168.025 25.4611 167.952 23.337 167.952 22.9122L167.949 22.9083ZM67.6115 9.77031H69.9559L69.9482 9.76649C69.9482 9.76649 70.401 9.75118 70.5468 9.94253C70.6657 10.0726 70.6887 10.2716 70.6312 10.5778L68.0566 23.9952L67.9415 24.5884C67.8993 24.8143 68.0988 25.0056 68.3213 24.9597L69.1386 24.7799C69.3266 24.7415 69.599 24.6917 69.6412 24.9674L69.7334 25.484C69.7334 25.484 69.7526 25.6333 69.6643 25.748C69.5031 25.9546 69.0811 26.0581 69.0811 26.0581L66.1611 27.0262L66.0729 27.0568C65.6585 27.1984 65.244 26.8426 65.3207 26.4101C65.3256 26.3809 65.3305 26.353 65.3351 26.3268L65.3354 26.3253L65.3355 26.3249L65.3357 26.3239C65.3417 26.2895 65.3473 26.2581 65.3516 26.2303L68.0834 12.1431C68.21 11.5767 68.0796 11.4465 67.9492 11.3164C67.8142 11.1745 67.6029 11.088 67.4142 11.0107L67.3851 10.9988C67.1241 10.8954 66.8556 10.7845 66.917 10.5281C66.917 10.5281 67.0512 10.1148 67.0512 10.1262C67.147 9.79181 67.3436 9.78296 67.54 9.77412L67.5402 9.77411C67.564 9.77304 67.5878 9.77197 67.6115 9.77031ZM152.321 9.68611H149.976C149.952 9.68777 149.929 9.68885 149.905 9.68992C149.708 9.69877 149.512 9.70762 149.416 10.042C149.416 10.0305 149.282 10.4439 149.282 10.4439C149.22 10.7003 149.489 10.8113 149.75 10.9146L149.779 10.9266C149.968 11.0038 150.179 11.0904 150.314 11.2322C150.444 11.3623 150.575 11.4925 150.448 12.0589L147.716 26.1461C147.714 26.163 147.711 26.1812 147.707 26.2005L147.7 26.242L147.7 26.2428L147.692 26.2864L147.686 26.3259C147.609 26.7584 148.023 27.1142 148.438 26.9727L148.526 26.9421L151.446 25.9738C151.446 25.9738 151.868 25.8705 152.029 25.6639C152.117 25.5491 152.098 25.3997 152.098 25.3997L152.006 24.8832C151.964 24.6076 151.691 24.6573 151.503 24.6956L150.686 24.8755C150.463 24.9215 150.264 24.73 150.306 24.5043L150.421 23.9111L152.996 10.4936C153.053 10.1874 153.03 9.98844 152.911 9.85833C152.766 9.66698 152.313 9.68228 152.313 9.68228L152.321 9.68611ZM63.7438 25.5873C63.7438 25.5873 63.7937 25.683 63.7668 25.7672L63.7822 25.7633C63.7553 25.8475 63.7131 25.8896 63.6479 25.9317C63.5827 25.9738 63.1798 26.2303 63.1798 26.2303C62.9726 26.3757 61.8944 27.076 60.8469 27.076C60.2444 27.076 59.7725 26.877 59.4502 26.4904C59.1279 26.104 58.9629 25.5299 58.9629 24.795C58.9667 24.3818 59.0089 23.9685 59.0895 23.5627C59.0895 23.5627 60.2368 17.5354 60.4402 16.4676C60.4556 16.3872 60.3941 16.3145 60.3097 16.3145H59.055C58.8708 16.3145 58.7327 16.1422 58.7673 15.9624L58.8785 15.4036C58.9092 15.2544 59.0435 15.1434 59.1971 15.1434H60.563C60.6244 15.1434 60.6781 15.1013 60.6896 15.0401L60.7675 14.6318L60.7684 14.6268L60.7696 14.6204C60.8707 14.0908 61.0185 13.3164 61.0733 13.0233C61.0887 12.9429 61.1309 12.8778 61.1922 12.8281L62.4584 11.8484C62.7308 11.6455 63.1414 11.5843 63.3486 11.7144C63.3946 11.7412 63.4291 11.7757 63.456 11.8216C63.4828 11.8675 63.4943 11.9211 63.4943 11.9708V12.0244C63.4943 12.0244 63.0532 14.3512 62.9266 15.0018C62.9112 15.0822 62.9765 15.1549 63.057 15.1549H65.3246C65.5165 15.1549 65.6661 15.3195 65.6469 15.5108L65.6239 15.7175C65.6201 15.7634 65.6009 15.8055 65.5664 15.8361L65.1635 16.2187C65.0906 16.2878 64.9985 16.326 64.8988 16.326H62.819C62.7577 16.326 62.7039 16.3681 62.6924 16.4293C62.47 17.5889 61.2843 23.7312 61.2843 23.7312C61.2383 23.9646 61.2076 24.202 61.2076 24.443C61.2076 24.7606 61.2651 24.9942 61.384 25.1395C61.4416 25.2046 61.5106 25.2543 61.5912 25.2849C61.6681 25.3155 61.7563 25.3308 61.8407 25.3232C62.2897 25.3308 62.7346 25.2237 63.1299 25.0133C63.1299 25.0133 63.2987 24.9253 63.3908 24.9559C63.483 24.9865 63.4983 25.0554 63.4983 25.0554L63.7438 25.5873ZM60.6052 11.569C60.6205 11.5231 60.5898 11.4695 60.5898 11.4695L60.4554 11.1748C60.4554 11.1748 60.4478 11.1366 60.3941 11.1174C60.3403 11.0983 60.2521 11.148 60.2521 11.148C60.0335 11.2628 59.7878 11.3241 59.5423 11.3164C59.4963 11.3164 59.4464 11.3126 59.4042 11.2935C59.362 11.2743 59.3198 11.2475 59.289 11.2131C59.2238 11.1327 59.1892 11.0026 59.1892 10.8304C59.1892 10.7003 59.2046 10.5663 59.2314 10.4362C59.2314 10.4362 59.8837 7.04931 60.0104 6.41021C60.0181 6.37576 60.045 6.3528 60.0795 6.3528H61.2268C61.2805 6.3528 61.3342 6.33367 61.3725 6.29539L61.595 6.08492C61.595 6.08492 61.6257 6.04281 61.6257 6.01986L61.6372 5.90505C61.6487 5.80171 61.5643 5.70987 61.4608 5.70987H60.2099C60.1639 5.70987 60.1294 5.6716 60.137 5.62567C60.2061 5.26593 60.4516 3.98388 60.4516 3.98388V3.95327C60.4516 3.92648 60.4439 3.89587 60.4324 3.87291C60.4171 3.84994 60.3979 3.82698 60.3749 3.81168C60.2598 3.73895 60.0335 3.7734 59.8837 3.88439L59.1854 4.424C59.1509 4.45078 59.1279 4.48906 59.1202 4.53114C59.078 4.74546 58.9476 5.43049 58.9092 5.6448C58.9015 5.67925 58.8747 5.7022 58.8402 5.7022H58.0843C57.9998 5.7022 57.9269 5.76344 57.9077 5.84764L57.8463 6.15763C57.8271 6.25712 57.9039 6.34897 58.0036 6.34897H58.6944C58.7404 6.34897 58.7749 6.39108 58.7673 6.43316C58.6559 7.02253 58.0228 10.3482 58.0228 10.3482C57.9806 10.5702 57.9537 10.7998 57.9537 11.0256C57.9537 11.4312 58.0458 11.7489 58.2224 11.9594C58.3989 12.1737 58.6597 12.2847 58.9936 12.2847C59.573 12.2847 60.1677 11.8981 60.279 11.8178C60.279 11.8178 60.5015 11.6762 60.5361 11.6532C60.5707 11.6302 60.5937 11.6073 60.6129 11.5613L60.6052 11.569ZM51.4731 27.0798C48.4381 27.0798 47.0568 24.7491 47.0568 22.5831L47.0491 22.5793C47.0491 18.3275 50.1494 14.8679 53.9518 14.8679C56.442 14.8679 58.1188 16.7239 58.1188 19.4871C58.1188 22.5908 55.7514 27.0798 51.4731 27.0798ZM53.4415 16.3375C52.0525 16.3375 49.4588 18.316 49.4588 22.0971V22.1009H49.4626C49.4626 23.8575 50.1609 25.6141 51.7187 25.6141C54.4967 25.6141 55.7015 21.4503 55.7015 19.3264C55.7015 18.6259 55.5404 16.3375 53.4415 16.3375ZM37.5065 22.1698C37.5065 25.3615 39.7282 27.0836 41.8116 27.0836C43.1625 27.0836 43.9898 26.7279 44.6555 26.4415L44.6664 26.4369L44.7277 26.4101C45.2496 26.1614 45.4414 25.9623 45.4989 25.6218L45.614 25.0975C45.6293 25.0286 45.6217 24.9559 45.5987 24.8908C45.5718 24.8258 45.5258 24.7683 45.4682 24.73C45.2688 24.6037 44.9119 24.6764 44.5396 24.9215C44.0256 25.2543 43.3426 25.4305 42.5521 25.4305C40.956 25.4305 39.9238 24.0794 39.9238 21.9861C39.9238 18.9398 41.9343 16.2725 44.2289 16.2725C45.2419 16.2725 45.7137 16.4944 45.9441 17.099L46.0054 17.298C46.0937 17.608 46.1896 17.9294 46.3852 18.006C46.4237 18.0213 46.4659 18.0251 46.5081 18.0213C46.5503 18.0174 46.5887 18.0021 46.627 17.9792L46.9646 17.7726C46.9646 17.7726 47.0223 17.7381 47.0568 17.6846C47.0913 17.631 47.1105 17.5621 47.1105 17.5621L47.4327 16.0313C47.5363 15.5375 47.3445 15.2391 46.8495 15.1052C46.3315 14.9597 45.5948 14.8717 44.8236 14.8717C40.0504 14.8717 37.5065 19.1082 37.5065 22.1659V22.1698ZM31.398 17.2253C29.4834 14.998 28.6661 13.3524 28.6661 11.7182L28.6738 11.7144C28.6738 9.25749 30.7649 7.73816 34.1339 7.73816C35.3694 7.73816 36.1674 7.87978 36.9846 8.24717C37.4605 8.43851 37.9785 8.7064 37.8749 9.31107L37.5794 10.9031L37.5257 11.2016C37.4988 11.3356 37.4259 11.458 37.3185 11.5422L36.7161 12.0168C36.7161 12.0168 36.5397 12.1277 36.4129 11.9172C36.3746 11.8522 36.3439 11.7986 36.3362 11.7833C36.2441 11.5881 36.1521 11.2858 36.0255 10.8533C36.0255 10.8533 35.9104 10.4783 35.9104 10.4706C35.6187 9.25749 34.4024 9.07379 33.7002 9.07379C32.434 9.07379 31.0796 9.95782 31.0796 11.2781C31.0796 12.6827 32.0503 13.869 33.282 15.3692L34.3142 16.6551C36.2403 19.1694 36.4436 20.1147 36.4436 21.676C36.4436 23.8537 34.5558 27.0683 30.5041 27.0683C28.624 27.0683 27.7682 26.8349 27.1773 26.609L27.1694 26.6061C26.1024 26.2071 25.9652 26.1557 26.1069 25.415L26.5365 22.9351L26.5596 22.7706L26.5617 22.7556C26.5994 22.4955 26.6409 22.2098 26.8781 22.1047C26.8781 22.1047 27.5074 21.879 27.515 21.879C27.5457 21.8713 27.5802 21.8675 27.6109 21.8713C27.6416 21.8752 27.6723 21.8866 27.6992 21.9058C27.8371 21.9975 27.864 22.2342 27.9101 22.6391L27.9103 22.6405C27.9563 23.0462 28.0177 23.5551 28.221 24.0603C28.4435 25.0248 29.4258 25.6753 30.6613 25.6753C33.0365 25.6753 33.7731 23.0386 33.7731 22.0779C33.7731 20.3366 32.4839 18.4805 31.398 17.2253ZM46.3585 5.69073H47.7398L47.7474 5.69455C47.7973 5.6869 47.8472 5.69073 47.8932 5.70605C47.9392 5.72135 47.9814 5.74431 48.016 5.77876C48.0428 5.82084 48.062 5.86677 48.0697 5.91652C48.0773 5.96628 48.0735 6.01603 48.0582 6.06577L47.1796 10.5702C47.1335 10.8266 47.1259 10.9758 47.1681 11.0179C47.1872 11.0332 47.2333 11.0409 47.3023 11.0332L47.5325 10.9797L47.5475 10.976C47.747 10.9271 47.964 10.8738 48.0313 11.0791C48.0313 11.0791 48.0812 11.3547 48.0812 11.3662C48.0965 11.5843 47.9009 11.657 47.7283 11.7183L47.6515 11.7489L46.0591 12.2885H46.0323C45.9709 12.2961 45.9057 12.2885 45.8482 12.2694C45.7868 12.2502 45.7331 12.2158 45.6907 12.1737C45.6102 12.0857 45.5795 11.9479 45.6102 11.7642L46.5465 7.02253C46.604 6.70489 46.558 6.65896 46.5119 6.61303C46.4275 6.54032 46.3277 6.48674 46.2202 6.45231L46.2165 6.45079C46.0751 6.39362 45.8946 6.32061 45.9364 6.14232C45.9364 6.14232 45.9978 5.91652 45.9978 5.92035C46.04 5.729 46.1665 5.69073 46.3585 5.69073ZM49.8385 7.04548C49.8078 7.17942 49.7925 7.31338 49.7925 7.45115C49.7925 8.16891 50.2724 8.59272 50.6735 8.94696L50.6828 8.95515L50.8094 9.06614L50.8861 9.1312C51.2852 9.47181 51.8261 9.93486 51.8261 10.5242C51.8261 10.574 51.8261 10.6237 51.8145 10.6735C51.7839 10.8801 51.688 11.0753 51.5422 11.2284C51.3964 11.3815 51.2045 11.4848 51.0012 11.5269C50.794 11.569 50.579 11.546 50.3872 11.4618C50.1916 11.3777 50.0305 11.2361 49.9191 11.0562L49.5201 10.4132C49.5048 10.3865 49.4856 10.3635 49.4588 10.3444C49.4319 10.3252 49.4051 10.3138 49.3781 10.3061C49.3435 10.2984 49.309 10.2984 49.2783 10.3061C49.2438 10.3138 49.2131 10.3291 49.1901 10.352L48.8103 10.6161C48.7565 10.6543 48.7181 10.7118 48.6989 10.7768C48.6798 10.8419 48.6836 10.9108 48.7066 10.972L48.9216 11.7871L48.9523 11.8407C49.1479 12.0053 49.7004 12.2885 50.5484 12.2885C51.3964 12.2885 52.8199 11.8407 53.1154 10.6123C53.3571 9.60958 52.8084 8.88244 51.9068 8.09791L51.803 8.00989C51.3619 7.63102 51.0165 7.33251 51.1009 6.83118C51.1508 6.52884 51.523 6.28009 51.9259 6.28009C52.4246 6.28009 52.6549 6.46379 52.724 6.90389C52.7317 6.96895 52.7662 7.03018 52.8161 7.07611C52.8659 7.11819 52.9311 7.14499 53.0002 7.14116H53.1998C53.3835 7.14116 53.426 6.98493 53.4757 6.80175L53.476 6.80055L53.5681 6.51354L53.6908 6.14615C53.7063 6.10787 53.714 6.0696 53.714 6.03134C53.714 5.99306 53.7025 5.95478 53.6832 5.91652C53.6525 5.86294 53.6064 5.81319 53.5566 5.77493C53.5067 5.73665 53.4453 5.70986 53.3839 5.69838C53.0002 5.58739 52.6051 5.53383 52.206 5.53383C51.2275 5.53383 50.0689 6.06194 49.8462 7.03783L49.8385 7.04548ZM54.9687 5.69073H56.35L56.3538 5.69455C56.3998 5.6869 56.4497 5.69073 56.4957 5.70605C56.5418 5.72135 56.584 5.74431 56.6185 5.77876C56.6453 5.82084 56.6645 5.86677 56.6722 5.91652C56.6799 5.96628 56.676 6.01603 56.6607 6.06577L55.7859 10.5702C55.7399 10.8266 55.7322 10.9758 55.7744 11.0179C55.7936 11.0332 55.8396 11.0409 55.9087 11.0332L56.1388 10.9797L56.1516 10.9765C56.3518 10.9275 56.5739 10.873 56.6415 11.0791C56.6415 11.0791 56.6914 11.3547 56.6914 11.3662C56.7105 11.5843 56.5111 11.657 56.3385 11.7183L56.2579 11.7489L54.6693 12.2885H54.6386C54.5773 12.2961 54.512 12.2885 54.4545 12.2694C54.397 12.2502 54.3433 12.2158 54.2971 12.1737C54.2165 12.0857 54.1897 11.9479 54.2165 11.7642L55.1567 7.02253C55.2104 6.70489 55.1643 6.65896 55.1183 6.61303C55.0301 6.54032 54.9303 6.48674 54.8228 6.45231C54.677 6.3949 54.4929 6.32219 54.5389 6.14232C54.5389 6.14232 54.6003 5.91652 54.6003 5.92035C54.6463 5.729 54.7767 5.69073 54.9687 5.69073ZM179.816 5.10901H180.545L181.201 6.94598L181.866 5.10901H182.595V7.66546H182.122V5.6027L181.413 7.66546H181.002L180.288 5.6027V7.66546H179.816V5.10901ZM178.036 5.53764H177.2V5.10901H179.386V5.53764H178.547V7.66546H178.036V5.53764ZM119.296 4.16375H120.032V30.6083H119.296V4.16375ZM140.449 27.0798C140.28 27.0798 140.176 26.8923 140.272 26.7508L140.625 26.2264C140.706 26.104 140.829 26.0197 140.971 25.9814C141.074 25.9546 141.186 25.924 141.243 25.9049L141.27 25.8972C141.838 25.6945 142.183 25.1204 142.099 24.5272C142.096 24.5088 142.093 24.4904 142.09 24.4726C142.087 24.4497 142.084 24.428 142.08 24.4086L141.608 21.2896H134.651L132.717 24.7874C132.526 25.1357 132.656 25.5759 133.013 25.7595C133.098 25.804 133.213 25.8637 133.329 25.9237C133.423 25.9722 133.517 26.0209 133.596 26.0619C133.7 26.1155 133.73 26.2456 133.661 26.3412L133.408 26.6857C133.394 26.7061 133.363 26.7449 133.327 26.7911C133.295 26.8318 133.258 26.8782 133.224 26.9229C133.136 27.0339 133.001 27.0989 132.859 27.0989H129.084H128.52C128.347 27.0989 128.243 26.9115 128.332 26.7661L128.696 26.1767C128.754 26.0849 128.838 26.0159 128.938 25.9853C129.072 25.9393 129.264 25.8819 129.36 25.8552C129.552 25.8054 129.74 25.748 129.924 25.6792C130.108 25.6103 130.3 25.5185 130.461 25.3921C130.645 25.2505 130.807 25.0783 130.937 24.8832C131.068 24.6994 131.225 24.4507 131.409 24.1368L138.423 11.4159L138.63 11.0409C139.025 10.3214 138.672 9.42205 137.894 9.16563C137.778 9.12737 137.437 9.00108 137.199 8.90923C137.065 8.85947 137.003 8.70257 137.068 8.57628L137.318 8.09025C137.318 8.09025 137.399 7.87593 137.548 7.80705C137.698 7.73816 137.963 7.73434 137.963 7.73434H141.646C141.865 7.73434 142.049 7.89508 142.08 8.11321C142.08 8.11321 142.901 14.0221 143.373 16.7048L143.7 18.5663C144.049 20.5493 144.378 22.4209 144.689 24.1827C144.697 24.2404 144.711 24.3254 144.726 24.4238L144.727 24.4274C144.739 24.5046 144.752 24.5898 144.766 24.6764C144.831 25.0898 145.122 25.4305 145.521 25.5606C145.725 25.6256 146.162 25.771 146.462 25.8743C146.626 25.9279 146.692 26.1231 146.6 26.2685L146.262 26.8005C146.147 26.9803 145.947 27.0913 145.732 27.0913H140.457L140.449 27.0798ZM141.362 19.7587L140.088 11.1327L135.43 19.7587H141.362ZM10.0299 7.1603L10.0336 7.15967L10.0337 7.1603H10.0299ZM10.0336 7.15967C10.1476 7.14083 10.2653 7.12569 10.3905 7.11056C10.4673 7.10289 10.544 7.09524 10.6169 7.09141C10.6438 6.53267 10.8011 4.64596 12.2899 3.20318C12.7695 2.74011 13.2683 2.43395 13.6942 2.23495C13.8093 2.18137 13.84 2.03212 13.7556 1.94027C13.5676 1.72596 13.3105 1.48103 12.9728 1.25906C12.4433 0.910806 11.933 0.757726 11.58 0.685013C11.4956 0.669704 11.4112 0.707975 11.369 0.780688C10.9085 1.59967 10.6208 2.34594 10.4366 2.91998C10.2601 3.48255 9.96848 4.424 9.94162 5.6869C9.93011 6.28741 9.97993 6.79233 10.0336 7.15967ZM13.0879 10.5778C13.9167 10.4477 15.8621 10.375 16.5297 12.1545C17.2357 14.0757 15.2175 16.1078 14.1047 16.8004C12.9882 17.4933 10.7896 18.6374 7.62025 18.4767C4.80006 18.1362 3.69501 16.854 3.51467 15.6179C3.3305 14.3818 3.57223 12.4416 6.04324 10.2602C8.75215 7.96779 11.8064 7.66163 11.8064 7.66163C11.8064 7.66163 13.4409 7.3899 14.9604 7.91038C16.6717 8.49591 16.43 9.32637 16.43 9.32637C16.43 9.32637 16.2917 10.2678 14.3465 10.1339C10.0025 9.59229 8.32204 10.9447 7.38109 11.7019L7.38103 11.702C7.34458 11.7313 7.30925 11.7597 7.27491 11.7871C6.35404 12.5219 5.60583 13.9762 5.94731 14.9597C6.28881 15.9433 7.20585 16.6665 9.61163 16.3681C11.5628 16.1074 12.5619 15.1804 13.2573 14.5352C13.3072 14.4889 13.3556 14.444 13.4026 14.401C14.1047 13.758 14.4232 12.5334 14.0894 12.1928L14.0872 12.1906C13.9847 12.0845 13.9078 12.0049 13.7249 11.9555C13.487 11.8905 12.9421 11.8369 11.9829 12.2885C11.9791 12.2923 11.9752 12.2923 11.9752 12.2923C12.6467 12.7668 12.9345 13.2644 12.992 13.5246C13.0649 13.8537 13.0572 14.3129 12.6122 14.4584C12.3973 14.5273 12.0788 14.4966 11.8985 13.9724C11.7412 13.4634 11.4649 13.1266 11.085 12.8242C10.567 13.184 9.97231 13.6738 9.51955 14.267C9.33573 14.5059 9.22469 14.7188 9.14643 14.8689C9.06296 15.0289 9.01677 15.1175 8.95934 15.0898C8.94783 15.086 8.92098 15.0631 8.93249 14.9367C9.00539 14.1867 9.58095 13.0309 10.2371 12.2808C9.83392 12.0925 9.43758 12.0277 9.19808 11.9886C9.07741 11.9688 8.99655 11.9556 8.9747 11.9364C8.83656 11.8101 9.42746 11.6379 9.81115 11.6226C10.1143 11.6073 10.4673 11.6417 10.8203 11.7336C11.5762 11.1365 12.5738 10.6467 13.0879 10.5778ZM0 18.5838C0 16.3451 0.790419 15.2353 1.23551 14.7148C1.31608 14.6229 1.46573 14.6956 1.44271 14.8143C1.3276 15.4342 1.13575 16.7048 1.41968 18.0633C1.89338 20.3224 3.60687 21.4285 4.99578 22.325C5.6657 22.7574 6.26011 23.1411 6.60345 23.5819C7.62025 24.5119 7.79291 26.2762 7.80442 27.2482C7.80442 27.3822 7.62025 27.4205 7.57036 27.2942C7.3555 26.7469 6.96028 25.9546 6.32335 25.3385C5.75893 24.7935 4.97475 24.4315 4.17718 24.0633L4.17716 24.0633C3.44029 23.7231 2.69199 23.3776 2.09499 22.8777C0.851811 21.8369 0 20.8189 0 18.5838ZM11.438 27.0645C11.4726 27.21 11.6759 27.2177 11.722 27.076C11.933 26.4101 12.4203 25.2046 13.3105 24.5234C13.9047 24.0696 14.7246 23.6191 15.6351 23.1188C16.6826 22.5432 17.8499 21.9018 18.9317 21.1136C19.8256 20.4591 21.4794 18.1171 20.9039 15.1587C20.4894 13.0271 19.4035 12.2005 18.8281 11.902C18.7014 11.8407 18.571 11.9708 18.6285 12.0971C19.0046 12.9199 19.8065 15.1052 18.9701 17.4051C18.3504 19.1137 17.0923 19.8068 15.707 20.5701C14.7247 21.1113 13.6784 21.6877 12.7503 22.6864C11.1196 24.443 11.25 26.2264 11.438 27.0645ZM8.24952 19.7511C8.26487 19.6593 8.3416 19.5904 8.4337 19.5866C8.75216 19.5789 9.08214 19.5598 9.42747 19.533C9.89653 19.4936 10.4132 19.356 10.8815 19.2312C11.1411 19.1621 11.3858 19.0969 11.5992 19.0546C11.7412 19.0278 11.8601 19.1656 11.8141 19.3034L11.7198 19.5743L11.7198 19.5744C11.3772 20.5585 11.0351 21.5414 10.9085 22.1583C10.4941 24.1789 10.0069 26.7316 11.0697 29.3493C11.2308 29.7435 11.3958 30.0725 11.5416 30.3252C11.6145 30.4515 11.5225 30.6083 11.3728 30.6083H10.5978C10.5364 30.6083 10.4826 30.5816 10.4481 30.5356C10.1565 30.1567 9.78048 29.6171 9.41597 28.9206C8.5066 27.1716 8.31091 25.6256 8.1651 24.3665C8.03848 23.2605 7.95791 21.6646 8.24569 19.7473L8.24952 19.7511ZM95.3106 24.9712L95.4027 25.4879L95.4065 25.4802C95.4065 25.4802 95.4258 25.6294 95.3375 25.7442C95.1763 25.9546 94.7542 26.0581 94.7542 26.0581L91.8344 27.0262L91.7462 27.0569C91.3317 27.1984 90.9173 26.8426 90.994 26.4101C91.0055 26.3412 91.017 26.28 91.0247 26.2303L92.2103 20.1147C92.5596 18.3543 92.5404 17.3975 92.149 16.923C91.9226 16.6589 91.5619 16.5326 91.0439 16.5326C90.3417 16.5326 89.4977 17.0263 88.7341 17.8912C87.3067 19.4986 87.0113 21.1098 86.6697 22.9735L85.9868 26.5631C85.9561 26.7087 85.8295 26.812 85.6837 26.812H84.0491C83.8535 26.812 83.7076 26.636 83.7459 26.4484L85.4764 17.5315C85.5685 16.9077 85.4572 16.7966 85.3652 16.7048C85.2255 16.5541 85.0077 16.4665 84.8105 16.3872L84.8011 16.3834C84.5403 16.2801 84.2716 16.1728 84.333 15.9126L84.4674 15.5108C84.5326 15.2353 84.663 15.1549 85.0314 15.1549H87.56L87.5715 15.1549C87.708 15.1548 87.8812 15.1547 87.982 15.2812C88.0395 15.3577 88.0664 15.4495 88.0625 15.5452C88.0625 15.6066 88.055 15.6716 88.0433 15.7328C88.0433 15.7328 87.7978 16.9575 87.7134 17.3975C88.7955 15.9241 90.6449 14.9215 92.4483 14.8755C93.3576 14.8755 93.9945 15.1166 94.3936 15.5989C94.9193 16.238 95.0229 17.3324 94.7082 18.9398L93.726 23.9991L93.6109 24.5923C93.5686 24.8182 93.7682 25.0095 93.9907 24.9635L94.8079 24.7837C94.9961 24.7453 95.2684 24.6956 95.3106 24.9712ZM106.33 23.9991L108.909 10.5816C108.967 10.2755 108.944 10.0765 108.824 9.94636C108.679 9.75501 108.226 9.77032 108.226 9.77032H105.882C105.858 9.77197 105.834 9.77305 105.81 9.77412C105.614 9.78296 105.417 9.7918 105.321 10.1262C105.321 10.1148 105.187 10.5281 105.187 10.5281C105.126 10.7845 105.394 10.8955 105.655 10.9988L105.684 11.0108C105.873 11.088 106.084 11.1746 106.219 11.3164L106.219 11.3165C106.35 11.4466 106.48 11.5768 106.353 12.1431L105.747 15.2774V15.2697C105.747 15.2697 105.746 15.2697 105.745 15.2705C105.744 15.271 105.743 15.2719 105.743 15.2735C105.356 15.0363 104.519 14.8717 103.61 14.8717C99.493 14.8717 96.408 18.9628 96.408 22.6252C96.408 25.683 98.1769 27.0798 99.8192 27.0798C101.262 27.0798 102.996 25.7595 103.986 24.3551L103.622 26.2264C103.617 26.2552 103.611 26.2877 103.605 26.3233C103.601 26.3494 103.596 26.3771 103.591 26.4063C103.514 26.8388 103.928 27.1946 104.343 27.053L104.431 27.0224L107.351 26.0543C107.351 26.0543 107.773 25.9508 107.934 25.7404C108.023 25.6256 108.003 25.4764 108.003 25.4764L107.911 24.9597C107.869 24.6841 107.597 24.7338 107.409 24.7722L106.591 24.9521C106.369 24.998 106.169 24.8067 106.212 24.5808L106.327 23.9876L106.33 23.9991ZM100.353 25.4993C98.8982 25.4993 98.8253 23.3753 98.8253 22.9468C98.8253 19.6975 100.832 16.0657 103.518 16.0657C104.032 16.0657 105.229 16.238 105.229 17.8376C105.229 21.3126 102.233 25.4955 100.353 25.4955V25.4993ZM161.437 14.8832C162.357 14.8832 163.118 15.2391 163.725 15.9547L163.732 15.9471C164.334 16.6627 164.641 17.6616 164.641 18.9513C164.641 19.977 164.446 20.9949 164.058 21.944C163.679 22.893 163.137 23.7733 162.457 24.5387C161.787 25.2926 160.984 25.9164 160.086 26.3795C159.184 26.8464 158.184 27.0875 157.167 27.0798C156.649 27.0798 156.138 27.0186 155.635 26.9038C155.206 26.8196 154.796 26.6742 154.408 26.4751C154.312 26.4292 154.22 26.3795 154.136 26.3336C153.587 26.0313 153.299 25.4075 153.418 24.7952L153.475 24.4966L155.149 15.8859L155.888 12.0589C156.016 11.4925 155.885 11.3623 155.755 11.2322C155.618 11.0894 155.406 11.0026 155.216 10.9249L155.19 10.9146C154.929 10.8113 154.661 10.7003 154.722 10.4439C154.722 10.4439 154.857 10.0305 154.857 10.042C154.953 9.70758 155.149 9.69877 155.346 9.68992C155.37 9.68884 155.394 9.68777 155.417 9.68611H157.562C157.562 9.68611 158.015 9.67081 158.161 9.86216C158.279 9.99227 158.302 10.1913 158.245 10.4974L157.209 15.8859L157.005 16.9307L157.051 16.9766C157.381 16.5977 157.757 16.2648 158.172 15.9853C158.547 15.729 158.951 15.5108 159.373 15.3348C159.738 15.1817 160.117 15.0669 160.505 14.9865C160.812 14.9253 161.122 14.887 161.437 14.8832ZM159.2 25.5108C159.83 25.1395 160.375 24.642 160.812 24.0565L160.808 24.0526C161.833 22.6826 162.385 21.014 162.385 19.3034C162.385 18.6336 162.301 18.1018 162.127 17.696C161.994 17.3477 161.79 17.0302 161.533 16.7622C161.342 16.5671 161.104 16.4255 160.843 16.3451C160.674 16.2954 160.501 16.2648 160.329 16.2533C159.8 16.2457 159.276 16.3987 158.836 16.6971C158.386 17.0072 157.992 17.386 157.67 17.8261C157.317 18.3007 157.025 18.8174 156.795 19.3608C156.56 19.9081 156.356 20.4667 156.188 21.0369C156.039 21.5421 155.919 22.055 155.839 22.5755C155.778 22.9429 155.743 23.3102 155.732 23.6815V24.2517C155.735 24.4966 155.781 24.7377 155.873 24.9635C155.977 25.2084 156.142 25.4266 156.353 25.5912C156.583 25.7825 156.921 25.8973 157.374 25.9432C158.015 26.0006 158.655 25.8475 159.2 25.5108Z" fill="#700E57"/>
</svg>
