<svg width="1190" height="200" viewBox="0 0 1190 200" fill="none" xmlns="http://www.w3.org/2000/svg">
<path d="M305.802 28.2942C305.802 25.0184 308.002 22.5677 311.203 22.5677C314.404 22.5677 315.604 25.5685 315.604 27.2939C315.604 30.9699 313.203 33.1704 310.303 33.1704C307.052 33.1704 305.802 30.3947 305.802 28.2692V28.2942Z" fill="#5B2487"/>
<path d="M361.916 28.2942C361.916 25.0184 364.116 22.5677 367.317 22.5677C370.518 22.5677 371.718 25.5685 371.718 27.2939C371.718 30.9699 369.367 33.1704 366.417 33.1704C363.141 33.1704 361.916 30.3947 361.916 28.2692V28.2942Z" fill="#5B2487"/>
<path d="M462.166 147.849C462.166 167.829 473.693 176.956 484.396 176.956C494.249 176.956 506.201 167.454 512.478 157.826C512.003 159.952 510.503 166.754 509.302 172.155C508.602 175.306 511.653 178.007 514.704 176.931L533.108 170.505L534.008 170.18C536.109 169.429 538.059 168.729 537.884 166.529C537.884 166.429 537.284 163.153 537.284 163.153C537.009 161.377 535.009 161.802 533.158 162.128L529.157 163.028C529.157 163.028 527.332 163.378 526.857 162.378C526.382 161.377 526.657 159.102 527.057 156.801L535.134 114.616C536.484 105.813 533.833 104.288 530.458 102.363L528.732 101.287C522.706 98.5367 516.129 97.1113 509.502 97.1363C481.595 97.1363 462.115 123.843 462.115 147.799M477.844 149.874C477.844 128.669 490.923 104.938 508.427 104.938C511.778 104.938 519.58 106.064 519.58 116.516C519.58 139.222 500.05 166.554 487.797 166.554C478.345 166.554 477.869 152.675 477.869 149.9L477.844 149.874Z" fill="#5B2487"/>
<path d="M1078.87 147.649C1078.87 167.629 1090.4 176.756 1101.1 176.756C1110.95 176.756 1122.91 167.254 1129.18 157.627C1128.71 159.752 1127.21 166.554 1126.01 171.955C1125.31 175.106 1128.36 177.807 1131.41 176.731L1149.81 170.305L1150.71 169.98C1152.81 169.229 1154.76 168.529 1154.59 166.329C1154.59 166.229 1153.99 162.953 1153.99 162.953C1153.71 161.177 1151.71 161.603 1149.86 161.928L1145.86 162.828C1145.86 162.828 1144.04 163.178 1143.56 162.178C1143.09 161.177 1143.36 158.902 1143.76 156.601L1151.84 114.416C1153.19 105.614 1150.54 104.088 1147.16 102.163L1145.44 101.087C1139.41 98.3367 1132.83 96.9114 1126.21 96.9364C1098.3 96.9364 1078.82 123.643 1078.82 147.599M1094.55 149.675C1094.55 128.469 1107.63 104.738 1125.13 104.738C1128.48 104.738 1136.28 105.864 1136.28 116.316C1136.28 139.022 1116.75 166.354 1104.5 166.354C1095.05 166.354 1094.57 152.475 1094.57 149.7L1094.55 149.675Z" fill="#5B2487"/>
<path d="M455.914 63.8281H440.635C439.21 63.9281 437.684 63.703 436.984 66.1536C436.984 66.0786 436.109 68.7793 436.109 68.7793C435.709 70.4547 437.459 71.1799 439.16 71.8551C440.435 72.3802 441.911 72.9553 442.836 73.9306C443.686 74.7808 444.536 75.631 443.711 79.3319L425.907 171.38C425.857 171.705 425.781 172.105 425.706 172.555C425.206 175.381 427.907 177.707 430.608 176.781L431.183 176.581L450.213 170.255C450.213 170.255 452.963 169.579 454.014 168.229C454.589 167.479 454.464 166.504 454.464 166.504L453.863 163.128C453.588 161.327 451.813 161.653 450.588 161.903L445.261 163.078C443.811 163.378 442.511 162.128 442.786 160.652L443.536 156.776L460.315 69.1044C460.69 67.1039 460.54 65.8035 459.765 64.9533C458.815 63.703 455.864 63.8031 455.864 63.8031L455.914 63.8281Z" fill="#5B2487"/>
<path d="M992.698 63.2779H977.419C975.994 63.3779 974.469 63.1529 973.768 65.6035C973.768 65.5284 972.893 68.2291 972.893 68.2291C972.493 69.9045 974.243 70.6297 975.944 71.3049C977.219 71.83 978.695 72.4052 979.62 73.3804C980.47 74.2306 981.32 75.0808 980.495 78.7818L962.691 170.83C962.641 171.155 962.566 171.555 962.491 172.005C961.99 174.831 964.691 177.156 967.392 176.231L967.967 176.031L986.997 169.704C986.997 169.704 989.747 169.029 990.798 167.679C991.373 166.929 991.248 165.954 991.248 165.954L990.648 162.578C990.373 160.777 988.597 161.102 987.372 161.352L982.045 162.528C980.595 162.828 979.295 161.577 979.57 160.102L980.32 156.226L997.099 68.5542C997.474 66.5537 997.324 65.2534 996.549 64.4032C995.599 63.1529 992.648 63.2529 992.648 63.2529L992.698 63.2779Z" fill="#5B2487"/>
<path d="M415.579 168.354C415.754 167.804 415.429 167.179 415.429 167.179L413.829 163.703C413.829 163.703 413.729 163.253 413.128 163.053C412.528 162.853 411.428 163.428 411.428 163.428C408.852 164.803 405.952 165.503 403.026 165.453C402.476 165.503 401.901 165.403 401.4 165.203C400.875 165.003 400.425 164.678 400.05 164.253C399.275 163.303 398.9 161.777 398.9 159.702C398.9 158.127 399.1 156.576 399.4 155.051C399.4 155.051 407.127 114.916 408.577 107.339C408.652 106.939 409.002 106.664 409.402 106.664C411.853 106.664 420.105 106.664 422.956 106.664C423.606 106.664 424.206 106.414 424.681 105.964L427.307 103.463C427.532 103.263 427.657 102.988 427.682 102.688L427.832 101.337C427.957 100.087 426.982 99.0118 425.731 99.0118H410.953C410.428 99.0118 410.003 98.5367 410.103 98.0115C410.928 93.7605 413.803 78.5567 413.803 78.5567V78.2066C413.803 77.8815 413.728 77.5314 413.553 77.2314C413.378 76.9313 413.153 76.7062 412.853 76.5312C411.503 75.681 408.827 76.0811 407.052 77.4064L398.8 83.808C398.4 84.1331 398.125 84.5582 398.025 85.0833C397.549 87.6339 395.999 95.761 395.524 98.2616C395.449 98.6617 395.099 98.9368 394.699 98.9368C392.948 98.9368 388.322 98.9368 385.797 98.9368C384.796 98.9368 383.921 99.662 383.721 100.637L382.996 104.288C382.771 105.463 383.671 106.589 384.871 106.589H393.048C393.598 106.589 393.999 107.064 393.899 107.589C392.573 114.566 385.096 153.951 385.096 153.951C384.571 156.601 384.296 159.302 384.271 162.003C384.271 166.804 385.346 170.555 387.447 173.08C389.547 175.606 392.623 176.906 396.549 176.906C403.376 176.906 410.403 172.33 411.753 171.38C411.753 171.38 414.379 169.704 414.804 169.429C415.229 169.154 415.504 168.879 415.679 168.329L415.579 168.354Z" fill="#5B2487"/>
<path d="M394.974 75.581C395.074 75.2809 394.874 74.9308 394.874 74.9308L393.998 73.0053C393.998 73.0053 393.948 72.7553 393.598 72.6302C393.248 72.5052 392.673 72.8303 392.673 72.8303C391.248 73.5805 389.647 73.9806 388.047 73.9306C387.747 73.9306 387.422 73.9056 387.147 73.7805C386.872 73.6555 386.597 73.4805 386.396 73.2554C385.971 72.7303 385.746 71.8801 385.746 70.7548C385.746 69.9046 385.846 69.0293 386.021 68.1791C386.021 68.1791 390.272 46.0486 391.098 41.8726C391.148 41.6475 391.323 41.4975 391.548 41.4975C392.898 41.4975 397.449 41.4975 399.025 41.4975C399.375 41.4975 399.725 41.3724 399.975 41.1224L401.425 39.747C401.425 39.747 401.625 39.472 401.625 39.3219L401.7 38.5717C401.775 37.8966 401.225 37.2964 400.55 37.2964H392.398C392.098 37.2964 391.873 37.0463 391.923 36.7463C392.373 34.3957 393.973 26.0186 393.973 26.0186V25.8185C393.973 25.6435 393.923 25.4434 393.848 25.2934C393.748 25.1434 393.623 24.9933 393.473 24.8933C392.723 24.4182 391.248 24.6432 390.272 25.3684L385.721 28.8943C385.496 29.0694 385.346 29.3194 385.296 29.5945C385.021 30.9948 384.171 35.471 383.921 36.8713C383.871 37.0964 383.696 37.2464 383.471 37.2464C382.496 37.2464 379.945 37.2464 378.545 37.2464C377.994 37.2464 377.519 37.6465 377.394 38.1966L376.994 40.2221C376.869 40.8723 377.369 41.4725 378.019 41.4725H382.521C382.821 41.4725 383.046 41.7475 382.996 42.0226C382.27 45.8736 378.144 67.604 378.144 67.604C377.869 69.0544 377.694 70.5547 377.694 72.0301C377.694 74.6808 378.294 76.7563 379.445 78.1316C380.595 79.532 382.295 80.2571 384.471 80.2571C388.247 80.2571 392.123 77.7315 392.848 77.2064C392.848 77.2064 394.298 76.2812 394.524 76.1311C394.749 75.9811 394.899 75.831 395.024 75.531L394.974 75.581Z" fill="#5B2487"/>
<path d="M306.677 147.549C306.677 161.702 315.679 176.931 335.459 176.931C363.341 176.931 378.77 147.599 378.77 127.319C378.77 109.264 367.842 97.1364 351.613 97.1364C326.832 97.1364 306.627 119.742 306.627 147.524M322.331 144.373C322.331 119.667 339.235 106.739 348.287 106.739C361.966 106.739 363.016 121.692 363.016 126.269C363.016 140.147 355.164 167.354 337.059 167.354C326.907 167.354 322.356 155.876 322.356 144.398H322.331V144.373Z" fill="#5B2487"/>
<path d="M244.436 144.848C244.436 165.704 258.915 176.956 272.493 176.956C281.345 176.956 286.747 174.606 291.098 172.73L291.498 172.555C294.899 170.93 296.149 169.629 296.524 167.404L297.274 163.978C297.374 163.528 297.324 163.053 297.174 162.628C296.999 162.203 296.699 161.828 296.324 161.577C295.024 160.752 292.698 161.227 290.272 162.828C286.922 165.003 282.471 166.154 277.319 166.154C266.917 166.154 260.19 157.326 260.19 143.648C260.19 123.743 273.293 106.314 288.247 106.314C294.849 106.314 297.924 107.764 299.425 111.715L299.825 113.015C300.4 115.041 301.025 117.141 302.3 117.641C302.551 117.742 302.826 117.767 303.101 117.742C303.376 117.717 303.626 117.616 303.876 117.466L306.076 116.116C306.076 116.116 306.452 115.891 306.677 115.541C306.902 115.191 307.027 114.741 307.027 114.741L309.127 104.738C309.802 101.512 308.552 99.562 305.326 98.6868C301.95 97.7365 297.149 97.1614 292.123 97.1614C261.015 97.1614 244.436 124.843 244.436 144.823V144.848Z" fill="#5B2487"/>
<path d="M186.822 76.5562C186.822 87.2339 192.148 97.9865 204.626 112.54C211.703 120.742 220.105 132.87 220.105 144.248C220.105 150.525 215.304 167.754 199.825 167.754C191.773 167.754 185.371 163.503 183.921 157.201C182.596 153.901 182.196 150.575 181.896 147.924C181.595 145.273 181.42 143.723 180.52 143.123C180.345 142.998 180.145 142.923 179.945 142.898C179.745 142.873 179.52 142.898 179.32 142.948C179.27 142.948 175.169 144.423 175.169 144.423C173.593 145.123 173.343 147.049 173.093 148.774L172.943 149.849L170.143 166.054C169.217 170.905 170.118 171.23 177.119 173.855C180.97 175.331 186.547 176.856 198.8 176.856C225.206 176.856 237.509 155.851 237.509 141.622C237.509 131.42 236.184 125.243 223.631 108.814L216.904 100.412C208.877 90.6097 202.551 82.8578 202.551 73.6805C202.551 65.0533 211.378 59.2769 219.63 59.2769C224.206 59.2769 232.133 60.4772 234.034 68.4041C234.034 68.4542 234.784 70.9048 234.784 70.9048C235.609 73.7305 236.209 75.706 236.809 76.9813C236.859 77.0813 237.059 77.4314 237.309 77.8565C238.135 79.2318 239.285 78.5067 239.285 78.5067L243.211 75.4059C243.911 74.8558 244.386 74.0556 244.561 73.1803L244.911 71.2299L246.837 60.8273C247.512 56.8763 244.136 55.1258 241.035 53.8755C235.709 51.4749 230.508 50.5497 222.456 50.5497C200.5 50.5497 186.872 60.4772 186.872 76.5312L186.822 76.5562Z" fill="#5B2487"/>
<path d="M299.775 20.8422H288.922C288.572 20.8422 288.222 20.9423 287.922 21.1173C287.622 21.2924 287.372 21.5424 287.197 21.8425L287.022 22.0676L286.096 23.3179C285.896 23.5679 285.771 23.893 285.746 24.2181C285.746 24.3181 285.746 24.4431 285.796 24.5432C285.996 25.1683 286.622 25.4184 287.297 25.7185C287.972 25.9935 288.622 26.2686 288.822 26.8187C288.872 26.9438 288.897 27.0938 288.872 27.2438C288.822 27.944 288.597 28.6192 288.222 29.1943C288.222 29.1943 273.043 57.3014 269.317 64.2281L263.816 29.6695C263.766 29.3944 263.741 29.1443 263.766 28.8693C263.766 27.1938 264.766 26.7437 265.991 26.2186C266.867 25.9435 267.617 25.3934 268.167 24.6682C268.167 24.6932 269.117 23.2178 269.117 23.2178C269.292 22.9678 269.392 22.6927 269.417 22.3926C269.417 22.0926 269.392 21.7925 269.242 21.5424C269.067 21.2924 268.817 21.1173 268.542 20.9923C268.267 20.8673 267.967 20.8422 267.667 20.8673H253.313C252.113 20.8673 251.363 20.9673 250.688 22.0926L249.787 23.5429C249.612 23.818 249.512 24.1431 249.487 24.4682C249.487 24.6182 249.512 24.7682 249.587 24.9183C249.712 25.1683 249.887 25.3684 250.112 25.5434C250.338 25.7185 250.588 25.8185 250.838 25.8685C253.938 26.7437 254.163 26.8187 254.764 30.2946L262.416 75.5059L262.816 77.9565C262.941 78.7567 263.641 79.3319 264.441 79.3319H265.841C266.692 79.3319 267.467 78.8818 267.867 78.1316L269.192 75.781L293.323 31.895C294.399 29.9695 295.624 27.769 297.649 26.4937L298.85 25.9185C299.85 25.4934 300.7 25.1433 301.225 24.1681L301.875 22.8427C302.05 22.5677 302.15 22.2676 302.15 21.9675C302.15 21.7675 302.1 21.5924 302 21.4174C301.6 20.7672 300.725 20.7922 299.825 20.8172L299.775 20.8422Z" fill="#5B2487"/>
<path d="M311.128 37.1714H302.126C300.875 37.1714 300.05 37.4215 299.775 38.6718C299.775 38.6468 299.375 40.1221 299.375 40.1221C299.1 41.2974 300.3 41.7725 301.225 42.1476C301.925 42.3727 302.576 42.7228 303.126 43.1979C303.426 43.498 303.726 43.798 303.351 45.8736L297.249 76.8563C297.049 78.0566 297.249 78.9568 297.774 79.532C298.05 79.807 298.4 80.0321 298.8 80.1571C299.175 80.2822 299.6 80.3322 300 80.2822H300.175L310.553 76.7563L311.053 76.5562C312.178 76.1561 313.453 75.681 313.353 74.2557C313.353 74.1806 313.028 72.3802 313.028 72.3802C312.578 71.0048 311.103 71.4049 309.777 71.73L308.277 72.0801C307.827 72.1301 307.527 72.0801 307.402 71.9801C307.127 71.705 307.177 70.7298 307.477 69.0544L313.203 39.622C313.303 39.2969 313.328 38.9718 313.278 38.6468C313.228 38.3217 313.103 38.0216 312.928 37.7465C312.703 37.5215 312.428 37.3714 312.128 37.2714C311.828 37.1714 311.503 37.1464 311.178 37.1964L311.128 37.1714Z" fill="#5B2487"/>
<path d="M324.806 46.0236C324.606 46.8988 324.506 47.774 324.506 48.6742C324.506 53.4004 327.682 56.1761 330.308 58.5017L331.133 59.2269L331.633 59.652C334.234 61.8776 337.759 64.9033 337.759 68.7543C337.759 69.0793 337.759 69.4044 337.684 69.7295C337.484 71.0798 336.859 72.3552 335.909 73.3554C334.959 74.3557 333.708 75.0308 332.383 75.3059C331.033 75.581 329.632 75.4309 328.382 74.8808C327.107 74.3307 326.057 73.4054 325.331 72.2301L322.731 68.0291C322.631 67.854 322.506 67.704 322.331 67.579C322.156 67.4539 321.981 67.3789 321.805 67.3289C321.58 67.2789 321.355 67.2789 321.155 67.3289C320.93 67.3789 320.73 67.4789 320.58 67.629L318.105 69.3544C317.754 69.6045 317.504 69.9796 317.379 70.4047C317.254 70.8298 317.279 71.2799 317.429 71.68L318.83 77.0063L319.03 77.3564C320.305 78.4317 323.906 80.2822 329.432 80.2822C334.959 80.2822 344.236 77.3564 346.162 69.3294C347.737 62.7778 344.161 58.0266 338.285 52.9003L337.609 52.3252C334.734 49.8495 332.483 47.8991 333.033 44.6232C333.358 42.6477 335.784 41.0223 338.41 41.0223C341.66 41.0223 343.161 42.2226 343.611 45.0984C343.661 45.5235 343.886 45.9236 344.211 46.2236C344.536 46.4987 344.961 46.6737 345.411 46.6487H346.712C347.912 46.6487 348.187 45.6235 348.512 44.4232L349.112 42.5477L349.912 40.1471C350.013 39.8971 350.063 39.647 350.063 39.3969C350.063 39.1469 349.988 38.8968 349.862 38.6467C349.662 38.2967 349.362 37.9716 349.037 37.7215C348.712 37.4714 348.312 37.2964 347.912 37.2214C345.411 36.4962 342.836 36.1461 340.235 36.1461C333.858 36.1461 326.307 39.597 324.856 45.9736L324.806 46.0236Z" fill="#5B2487"/>
<path d="M367.242 37.1714H358.24C356.989 37.1714 356.139 37.4215 355.839 38.6718C355.839 38.6468 355.439 40.1221 355.439 40.1221C355.139 41.2974 356.339 41.7725 357.289 42.1476C357.99 42.3727 358.64 42.7228 359.215 43.1979C359.515 43.498 359.815 43.798 359.465 45.8736L353.338 76.8563C353.163 78.0566 353.338 78.9568 353.863 79.532C354.164 79.807 354.514 80.0321 354.889 80.1571C355.264 80.2822 355.689 80.3322 356.089 80.2822H356.289L366.642 76.7563L367.167 76.5562C368.292 76.1561 369.592 75.681 369.467 74.2557C369.467 74.1806 369.142 72.3802 369.142 72.3802C368.692 71.0048 367.192 71.4049 365.866 71.73L364.366 72.0801C363.916 72.1301 363.616 72.0801 363.491 71.9801C363.216 71.705 363.266 70.7298 363.566 69.0544L369.267 39.622C369.367 39.2969 369.392 38.9718 369.342 38.6468C369.292 38.3217 369.167 38.0216 368.992 37.7465C368.767 37.5215 368.492 37.3714 368.192 37.2714C367.892 37.1714 367.567 37.1464 367.267 37.1964L367.242 37.1714Z" fill="#5B2487"/>
<path d="M1171.89 33.3704H1176.64L1180.92 45.3734L1185.25 33.3704H1190V50.0745H1186.92V36.5962L1182.3 50.0745H1179.62L1174.97 36.5962V50.0745H1171.89V33.3704ZM1160.29 36.1711H1154.84V33.3704H1169.09V36.1711H1163.62V50.0745H1160.29V36.1711Z" fill="#5B2487"/>
<path d="M782.27 27.1938H777.469V199.987H782.27V27.1938Z" fill="#5B2487"/>
<path d="M915.329 176.931C914.229 176.931 913.553 175.706 914.179 174.781L916.479 171.355C917.004 170.555 917.804 170.005 918.73 169.754C919.405 169.579 920.13 169.379 920.505 169.254L920.68 169.204C924.381 167.879 926.632 164.128 926.082 160.252C926.032 159.977 926.007 159.702 925.957 159.477L922.881 139.097H877.544L864.941 161.953C863.691 164.228 864.541 167.104 866.867 168.304C867.867 168.829 869.517 169.679 870.668 170.28C871.343 170.63 871.543 171.48 871.093 172.105L869.442 174.356C869.267 174.606 868.717 175.281 868.242 175.906C867.667 176.631 866.792 177.056 865.867 177.056H841.26C840.56 177.056 838.985 177.056 837.584 177.056C836.459 177.056 835.784 175.831 836.359 174.881L838.735 171.03C839.11 170.43 839.66 169.98 840.31 169.779C841.185 169.479 842.436 169.104 843.061 168.929C844.311 168.604 845.536 168.229 846.737 167.779C847.937 167.329 849.187 166.729 850.238 165.904C851.438 164.978 852.488 163.853 853.338 162.578C854.189 161.377 855.214 159.752 856.414 157.701L902.126 74.5807L903.476 72.1301C906.051 67.4289 903.751 61.5524 898.675 59.877C897.924 59.6269 895.699 58.8017 894.149 58.2016C893.273 57.8765 892.873 56.8512 893.298 56.026L894.924 52.8502C894.924 52.8502 895.449 51.4499 896.424 50.9998C897.399 50.5497 899.125 50.5247 899.125 50.5247H923.131C924.556 50.5247 925.756 51.5749 925.957 53.0003C925.957 53.0003 931.308 91.6099 934.384 109.139C937.459 126.669 940.31 142.948 942.961 158.002C943.061 158.677 943.261 159.927 943.461 161.227C943.886 163.928 945.786 166.154 948.387 167.004C949.712 167.429 952.563 168.379 954.514 169.054C955.589 169.404 956.014 170.68 955.414 171.63L953.213 175.106C952.463 176.281 951.163 177.006 949.762 177.006H915.379L915.329 176.931ZM921.28 129.094L912.978 72.7302L882.621 129.094H921.28Z" fill="#5B2487"/>
<path d="M47.8118 53.8005C47.2867 54.1756 46.7116 54.5756 46.1614 55.0008C45.5613 55.4759 44.9861 55.926 44.461 56.4011C39.4847 50.1245 29.7823 39.797 14.9536 34.4706C11.6028 33.2703 8.57702 32.5702 5.62629 32.2201C4.90111 32.145 4.40098 31.4949 4.52601 30.7697C5.05114 27.844 6.37647 23.1178 10.1274 18.7917C11.8278 16.8162 13.6033 15.4159 15.1537 14.3906C15.6038 14.0905 16.1789 14.1155 16.604 14.4656C24.7311 20.8422 34.3835 30.1695 42.3105 43.3228C44.486 46.9237 46.2864 50.4496 47.8368 53.8005H47.8118Z" fill="#5B2487"/>
<path d="M50.5876 52.0501C51.1877 51.7 51.8379 51.3249 52.563 50.9749C53.2882 50.6248 53.9884 50.2997 54.6386 50.0496C52.488 44.1732 50.4375 37.7215 48.5871 30.7448C45.9114 20.5923 44.211 11.1149 43.1607 2.58777C43.0857 2.01262 42.6356 1.56251 42.0604 1.5125C41.1852 1.43748 40.26 1.41247 39.3097 1.43748C31.5828 1.71255 25.6563 5.66353 22.3055 8.51425C21.7553 8.98937 21.7053 9.78957 22.2055 10.3147C28.1569 16.4912 34.7336 24.3682 40.9101 34.1206C44.9111 40.4472 48.0869 46.4987 50.6126 52.0251L50.5876 52.0501Z" fill="#5B2487"/>
<path d="M57.7644 48.7742C58.4395 48.5242 59.1397 48.2991 59.8649 48.074C60.6151 47.849 61.3153 47.6489 62.0154 47.4739C60.0649 36.3461 59.6398 22.5427 66.0164 6.63868C66.4415 5.56341 66.9417 4.53816 67.4668 3.53791C67.8169 2.88775 67.5168 2.06254 66.8166 1.78747C65.3913 1.26234 63.7659 0.78722 61.9154 0.462139C57.3643 -0.363067 53.4383 0.062039 50.6876 0.612176C50.0875 0.737208 49.6624 1.23733 49.6624 1.83748C49.7124 7.01378 50.0625 12.6402 50.8126 18.6667C52.263 30.3696 54.9387 40.4971 57.7894 48.7742H57.7644Z" fill="#5B2487"/>
<path d="M65.3663 46.7738C66.1165 46.6488 66.8917 46.5487 67.7169 46.4487C68.217 46.3987 68.7171 46.3487 69.1923 46.3237C69.3673 42.6728 70.3926 30.3447 80.095 20.9173C83.2208 17.8916 86.4716 15.8911 89.2473 14.5908C89.9975 14.2407 90.1975 13.2654 89.6474 12.6653C88.4221 11.2649 86.7466 9.66452 84.5461 8.21416C81.0952 5.93859 77.7694 4.93834 75.4688 4.46322C74.9187 4.36319 74.3685 4.61326 74.0935 5.08838C71.0927 10.4397 69.2173 15.3159 68.017 19.0669C66.8667 22.7428 64.9662 28.8943 64.7912 37.1464C64.7161 41.0724 65.0412 44.3732 65.3913 46.7738H65.3663Z" fill="#5B2487"/>
<path d="M107.727 79.4069C103.376 67.779 90.6976 68.2541 85.2963 69.1043C81.9454 69.5544 75.4438 72.7552 70.5176 76.6562C68.217 76.056 65.9164 75.831 63.9409 75.931C61.4403 76.031 57.5893 77.1563 58.4896 77.9815C58.9147 78.3566 62.7656 78.3816 66.7166 80.2321C62.4406 85.1333 58.6896 92.6852 58.2145 97.5864C58.1395 98.4116 58.3145 98.5617 58.3895 98.5867C59.1147 98.9367 59.5648 96.4361 62.0405 93.2103C64.9912 89.3343 68.8672 86.1335 72.243 83.783C74.7186 85.7584 76.5191 87.959 77.5443 91.2848C78.7196 94.7107 80.7951 94.9107 82.1955 94.4606C85.0962 93.5104 85.1462 90.5096 84.6711 88.3591C84.296 86.6587 82.4205 83.4079 78.0444 80.3071C78.0444 80.3071 78.0695 80.3071 78.0945 80.2821C84.346 77.3313 87.8969 77.6814 89.4473 78.1065C90.6476 78.4316 91.1477 78.9568 91.8229 79.6569C93.9984 81.8825 91.9229 89.8845 87.3468 94.0855C82.7706 98.2866 76.269 105.113 62.6406 106.939C46.9617 108.889 40.9852 104.163 38.7596 97.7365C36.5341 91.3098 41.4103 81.8075 47.4118 77.0063C53.4133 72.2051 64.091 62.5276 93.4983 66.2036C106.176 67.0788 107.077 60.9272 107.077 60.9272C107.077 60.9272 108.652 55.5009 97.4993 51.6749C87.5968 48.2741 76.9442 50.0495 76.9442 50.0495C76.9442 50.0495 57.0392 52.05 39.3848 67.0288C23.2808 81.2823 21.7054 93.9605 22.9057 102.038C24.081 110.115 31.2828 118.492 49.6624 120.717C70.3175 121.767 84.6461 114.291 91.9229 109.764C99.1747 105.238 112.328 91.96 107.727 79.4069Z" fill="#5B2487"/>
<path d="M0 121.417C0 106.789 5.15129 99.5369 8.05201 96.136C8.57714 95.5359 9.55239 96.011 9.40235 96.7862C8.65216 100.837 7.40185 109.139 9.25231 118.017C13.8285 139.897 36.159 145.223 43.0358 154.076C49.6624 160.152 50.7877 171.68 50.8627 178.031C50.8627 178.907 49.6624 179.157 49.3373 178.332C47.937 174.756 45.3613 169.579 41.2103 165.553C34.1335 158.702 21.7554 156.276 13.6534 149.474C5.55139 142.673 0 136.021 0 121.417Z" fill="#5B2487"/>
<path d="M76.394 176.906C76.0939 177.832 74.7686 177.782 74.5435 176.831C73.3182 171.355 72.468 159.702 83.0957 148.224C97.6743 132.495 116.729 132.795 123.631 113.716C129.082 98.6868 123.856 84.4082 121.405 79.0319C121.03 78.2067 121.88 77.3565 122.706 77.7566C126.456 79.707 133.533 85.1084 136.234 99.0369C139.985 118.367 129.207 133.671 123.381 137.947C110.202 147.574 95.0737 153.851 86.7466 160.227C80.9451 164.678 77.7693 172.555 76.394 176.906Z" fill="#5B2487"/>
<path d="M53.7635 129.044C53.8635 128.444 54.3636 127.994 54.9638 127.969C57.0393 127.919 59.1898 127.794 61.4404 127.619C66.1916 127.219 71.6929 125.268 75.5939 124.493C76.5191 124.318 77.2943 125.218 76.9943 126.119C74.5687 133.12 71.993 140.372 71.0928 144.773C68.3921 157.977 65.2163 174.656 72.1431 191.76C73.1933 194.336 74.2686 196.486 75.2188 198.137C75.6939 198.962 75.0938 199.987 74.1185 199.987H69.0673C68.6672 199.987 68.3171 199.812 68.092 199.512C66.1916 197.036 63.741 193.51 61.3654 188.959C55.4389 177.531 54.1636 167.429 53.2133 159.202C52.3881 151.975 51.863 141.547 53.7385 129.019L53.7635 129.044Z" fill="#5B2487"/>
<path d="M621.755 166.529L621.155 163.153C620.88 161.352 619.105 161.678 617.879 161.928L612.553 163.103C611.103 163.403 609.802 162.153 610.078 160.677L610.828 156.801L617.229 123.743C619.28 113.24 618.605 106.089 615.179 101.913C612.578 98.7618 608.427 97.1864 602.501 97.1864C590.748 97.4865 578.695 104.038 571.643 113.666C572.193 110.79 573.793 102.788 573.793 102.788C573.869 102.388 573.918 101.963 573.918 101.562C573.943 100.937 573.768 100.337 573.393 99.8371C572.718 98.9869 571.543 99.0119 570.643 99.0119H554.164C551.763 99.0119 550.913 99.537 550.488 101.337L549.612 103.963C549.212 105.664 550.963 106.364 552.663 107.039C553.964 107.564 555.414 108.139 556.339 109.139C556.939 109.74 557.664 110.465 557.064 114.541L545.786 172.805C545.536 174.031 546.487 175.181 547.762 175.181H558.415C559.365 175.181 560.19 174.506 560.39 173.555L564.841 150.1C567.067 137.922 568.992 127.394 578.295 116.891C583.271 111.24 588.772 108.014 593.348 108.014C596.724 108.014 599.075 108.839 600.55 110.565C603.101 113.666 603.226 119.917 600.95 131.42L593.223 171.38C593.173 171.705 593.098 172.105 593.023 172.555C592.523 175.381 595.224 177.707 597.925 176.781L598.5 176.581L617.529 170.255C617.529 170.255 620.28 169.579 621.33 168.204C621.906 167.454 621.78 166.479 621.78 166.479L621.755 166.529Z" fill="#5B2487"/>
<path d="M692.973 156.801L709.778 69.1294C710.153 67.1289 710.003 65.8286 709.227 64.9784C708.277 63.728 705.326 63.8281 705.326 63.8281H690.048C688.622 63.9281 687.097 63.703 686.397 66.1537C686.397 66.0786 685.521 68.7793 685.521 68.7793C685.121 70.4547 686.872 71.1799 688.572 71.8551C689.847 72.3802 691.323 72.9554 692.248 73.9306C693.098 74.7808 693.949 75.631 693.123 79.3319L689.172 99.8121V99.7621C689.172 99.7621 689.147 99.7621 689.147 99.7871C686.622 98.2367 681.17 97.1614 675.244 97.1614C648.412 97.1614 628.307 123.893 628.307 147.824C628.307 167.804 639.835 176.931 650.538 176.931C659.94 176.931 671.243 168.304 677.695 159.127L675.319 171.355C675.269 171.68 675.194 172.08 675.119 172.53C674.619 175.356 677.319 177.682 680.02 176.756L680.595 176.556L699.625 170.23C699.625 170.23 702.376 169.555 703.426 168.179C704.001 167.429 703.876 166.454 703.876 166.454L703.276 163.078C703.001 161.277 701.225 161.603 700 161.853L694.674 163.028C693.223 163.328 691.923 162.078 692.198 160.602L692.948 156.726L692.973 156.801ZM654.014 166.604C644.536 166.604 644.061 152.725 644.061 149.925C644.061 128.694 657.139 104.963 674.644 104.963C677.995 104.963 685.797 106.089 685.797 116.541C685.797 139.247 666.267 166.579 654.014 166.579V166.604Z" fill="#5B2487"/>
<path d="M1067.02 104.238C1063.07 99.562 1058.11 97.2364 1052.11 97.2364C1050.06 97.2614 1048.04 97.5115 1046.04 97.9116C1043.51 98.4367 1041.04 99.1869 1038.66 100.187C1035.91 101.337 1033.28 102.763 1030.83 104.438C1028.13 106.264 1025.68 108.439 1023.53 110.915L1023.23 110.615L1024.56 103.788L1031.31 68.5792C1031.68 66.5787 1031.53 65.2784 1030.76 64.4282C1029.81 63.1779 1026.86 63.2779 1026.86 63.2779H1012.88C1011.45 63.3779 1009.93 63.1529 1009.23 65.6035C1009.23 65.5285 1008.35 68.2291 1008.35 68.2291C1007.95 69.9046 1009.7 70.6297 1011.4 71.3049C1012.68 71.83 1014.15 72.4052 1015.08 73.3804C1015.93 74.2306 1016.78 75.0809 1015.95 78.7818L1011.13 103.788L1000.22 160.052L999.85 162.003C999.075 166.004 1000.95 170.08 1004.53 172.055C1005.08 172.355 1005.68 172.68 1006.3 172.98C1008.83 174.281 1011.5 175.231 1014.3 175.781C1017.58 176.531 1020.91 176.931 1024.28 176.931C1030.91 176.981 1037.43 175.406 1043.31 172.355C1049.16 169.329 1054.39 165.253 1058.76 160.327C1063.19 155.326 1066.72 149.574 1069.19 143.373C1071.72 137.171 1072.99 130.52 1072.99 123.818C1072.99 115.391 1070.99 108.864 1067.07 104.188L1067.02 104.238ZM1048.04 157.176C1045.19 161.002 1041.64 164.253 1037.53 166.679C1033.98 168.879 1029.81 169.88 1025.63 169.504C1022.68 169.204 1020.48 168.454 1018.98 167.204C1017.6 166.129 1016.53 164.703 1015.85 163.103C1015.25 161.628 1014.95 160.052 1014.93 158.452V154.726C1015 152.3 1015.23 149.9 1015.63 147.499C1016.15 144.098 1016.93 140.747 1017.9 137.446C1019 133.721 1020.33 130.07 1021.86 126.494C1023.36 122.943 1025.26 119.567 1027.56 116.466C1029.66 113.59 1032.23 111.115 1035.16 109.089C1038.03 107.139 1041.44 106.139 1044.89 106.189C1046.01 106.264 1047.14 106.464 1048.24 106.789C1049.94 107.314 1051.49 108.239 1052.74 109.514C1054.41 111.265 1055.74 113.34 1056.61 115.616C1057.74 118.267 1058.29 121.743 1058.29 126.119C1058.29 137.296 1054.69 148.199 1048.01 157.151L1048.04 157.176Z" fill="#5B2487"/>
</svg>
